<svg width="148" height="71" viewBox="0 0 148 71" fill="none" xmlns="http://www.w3.org/2000/svg">
<path d="M0.46 8.136L-0.0488985 6.72496L-1.36605 7.2L-0.982683 8.54669L0.46 8.136ZM18.028 1.8V0.299995H17.7658L17.5191 0.38896L18.028 1.8ZM31.468 1.8H32.968V0.299995H31.468V1.8ZM31.468 69V70.5H32.968V69H31.468ZM16.108 69H14.608V70.5H16.108V69ZM16.108 18.024H17.608V16.0573L15.7114 16.5774L16.108 18.024ZM4.204 21.288L2.76132 21.6987L3.16804 23.1274L4.60065 22.7346L4.204 21.288ZM0.968899 9.54704L18.5369 3.21103L17.5191 0.38896L-0.0488985 6.72496L0.968899 9.54704ZM18.028 3.3H31.468V0.299995H18.028V3.3ZM29.968 1.8V69H32.968V1.8H29.968ZM31.468 67.5H16.108V70.5H31.468V67.5ZM17.608 69V18.024H14.608V69H17.608ZM15.7114 16.5774L3.80735 19.8414L4.60065 22.7346L16.5047 19.4706L15.7114 16.5774ZM5.64668 20.8773L1.90268 7.72531L-0.982683 8.54669L2.76132 21.6987L5.64668 20.8773ZM88.5228 60.84L87.3285 59.9324L87.3271 59.9342L88.5228 60.84ZM48.2988 60.84L47.0988 61.74L47.1066 61.7505L47.1147 61.7609L48.2988 60.84ZM48.2988 10.056L47.1045 9.14837L47.1031 9.15021L48.2988 10.056ZM88.5228 10.056L87.3228 10.956L87.33 10.9657L87.3374 10.9752L88.5228 10.056ZM87.3271 59.9342C82.8356 65.863 76.6081 68.844 68.4588 68.844V71.844C77.4614 71.844 84.6099 68.489 89.7184 61.7458L87.3271 59.9342ZM68.4588 68.844C60.3772 68.844 54.1073 65.8649 49.4828 59.9191L47.1147 61.7609C52.3462 68.4871 59.5163 71.844 68.4588 71.844V68.844ZM49.4987 59.94C44.9476 53.8718 42.5988 45.7389 42.5988 35.4H39.5988C39.5988 46.1811 42.0499 55.0082 47.0988 61.74L49.4987 59.94ZM42.5988 35.4C42.5988 25.0601 44.9479 16.9631 49.4944 10.9618L47.1031 9.15021C42.0496 15.8209 39.5988 24.6199 39.5988 35.4H42.5988ZM49.493 10.9636C54.052 4.9649 60.3151 1.956 68.4588 1.956V-1.044C59.4504 -1.044 52.2735 2.3471 47.1045 9.14837L49.493 10.9636ZM68.4588 1.956C76.6021 1.956 82.8289 4.96424 87.3228 10.956L89.7228 9.156C84.6166 2.34775 77.4674 -1.044 68.4588 -1.044V1.956ZM87.3374 10.9752C91.938 16.9075 94.3188 24.9966 94.3188 35.4H97.3188C97.3188 24.5554 94.8355 15.7485 89.7081 9.13676L87.3374 10.9752ZM94.3188 35.4C94.3188 45.735 91.9398 53.8648 87.3285 59.9324L89.717 61.7476C94.8337 55.0152 97.3188 46.185 97.3188 35.4H94.3188ZM68.4588 13.932C63.9517 13.932 60.4542 15.8556 58.1731 19.6513C55.9652 23.3252 54.9588 28.6427 54.9588 35.4H57.9588C57.9588 28.8453 58.9523 24.1788 60.7444 21.1967C62.4633 18.3364 64.9658 16.932 68.4588 16.932V13.932ZM54.9588 35.4C54.9588 42.1573 55.9652 47.4748 58.1731 51.1487C60.4542 54.9444 63.9517 56.868 68.4588 56.868V53.868C64.9658 53.868 62.4633 52.4636 60.7444 49.6033C58.9523 46.6212 57.9588 41.9547 57.9588 35.4H54.9588ZM68.4588 56.868C72.9658 56.868 76.4633 54.9444 78.7444 51.1487C80.9523 47.4748 81.9588 42.1573 81.9588 35.4H78.9588C78.9588 41.9547 77.9652 46.6212 76.1731 49.6033C74.4542 52.4636 71.9517 53.868 68.4588 53.868V56.868ZM81.9588 35.4C81.9588 28.6427 80.9523 23.3252 78.7444 19.6513C76.4633 15.8556 72.9658 13.932 68.4588 13.932V16.932C71.9517 16.932 74.4542 18.3364 76.1731 21.1967C77.9652 24.1788 78.9588 28.8453 78.9588 35.4H81.9588ZM132.288 28.68H130.788V30.18H132.288V28.68ZM147.648 28.68H149.148V27.18H147.648V28.68ZM147.648 42.12V43.62H149.148V42.12H147.648ZM132.288 42.12V40.62H130.788V42.12H132.288ZM132.288 57.48V58.98H133.788V57.48H132.288ZM118.848 57.48H117.348V58.98H118.848V57.48ZM118.848 42.12H120.348V40.62H118.848V42.12ZM103.488 42.12H101.988V43.62H103.488V42.12ZM103.488 28.68V27.18H101.988V28.68H103.488ZM118.848 28.68V30.18H120.348V28.68H118.848ZM118.848 13.32V11.82H117.348V13.32H118.848ZM132.288 13.32H133.788V11.82H132.288V13.32ZM132.288 30.18H147.648V27.18H132.288V30.18ZM146.148 28.68V42.12H149.148V28.68H146.148ZM147.648 40.62H132.288V43.62H147.648V40.62ZM130.788 42.12V57.48H133.788V42.12H130.788ZM132.288 55.98H118.848V58.98H132.288V55.98ZM120.348 57.48V42.12H117.348V57.48H120.348ZM118.848 40.62H103.488V43.62H118.848V40.62ZM104.988 42.12V28.68H101.988V42.12H104.988ZM103.488 30.18H118.848V27.18H103.488V30.18ZM120.348 28.68V13.32H117.348V28.68H120.348ZM118.848 14.82H132.288V11.82H118.848V14.82ZM130.788 13.32V28.68H133.788V13.32H130.788Z" fill="white"/>
</svg>
