<svg width="209" height="71" viewBox="0 0 209 71" fill="none" xmlns="http://www.w3.org/2000/svg">
<path d="M0.96 8.136L0.451102 6.72496L-0.866047 7.2L-0.482683 8.54669L0.96 8.136ZM18.528 1.8V0.299995H18.2658L18.0191 0.38896L18.528 1.8ZM31.968 1.8H33.468V0.299995H31.968V1.8ZM31.968 69V70.5H33.468V69H31.968ZM16.608 69H15.108V70.5H16.608V69ZM16.608 18.024H18.108V16.0573L16.2114 16.5774L16.608 18.024ZM4.704 21.288L3.26132 21.6987L3.66804 23.1274L5.10065 22.7346L4.704 21.288ZM1.4689 9.54704L19.0369 3.21103L18.0191 0.38896L0.451102 6.72496L1.4689 9.54704ZM18.528 3.3H31.968V0.299995H18.528V3.3ZM30.468 1.8V69H33.468V1.8H30.468ZM31.968 67.5H16.608V70.5H31.968V67.5ZM18.108 69V18.024H15.108V69H18.108ZM16.2114 16.5774L4.30735 19.8414L5.10065 22.7346L17.0047 19.4706L16.2114 16.5774ZM6.14668 20.8773L2.40268 7.72531L-0.482683 8.54669L3.26132 21.6987L6.14668 20.8773ZM89.0228 60.84L87.8285 59.9324L87.8271 59.9342L89.0228 60.84ZM48.7988 60.84L47.5988 61.74L47.6066 61.7505L47.6147 61.7609L48.7988 60.84ZM48.7988 10.056L47.6045 9.14837L47.6031 9.15021L48.7988 10.056ZM89.0228 10.056L87.8228 10.956L87.83 10.9657L87.8374 10.9752L89.0228 10.056ZM87.8271 59.9342C83.3356 65.863 77.1081 68.844 68.9588 68.844V71.844C77.9614 71.844 85.1099 68.489 90.2184 61.7458L87.8271 59.9342ZM68.9588 68.844C60.8772 68.844 54.6073 65.8649 49.9828 59.9191L47.6147 61.7609C52.8462 68.4871 60.0163 71.844 68.9588 71.844V68.844ZM49.9987 59.94C45.4476 53.8718 43.0988 45.7389 43.0988 35.4H40.0988C40.0988 46.1811 42.5499 55.0082 47.5988 61.74L49.9987 59.94ZM43.0988 35.4C43.0988 25.0601 45.4479 16.9631 49.9944 10.9618L47.6031 9.15021C42.5496 15.8209 40.0988 24.6199 40.0988 35.4H43.0988ZM49.993 10.9636C54.552 4.9649 60.8151 1.956 68.9588 1.956V-1.044C59.9504 -1.044 52.7735 2.3471 47.6045 9.14837L49.993 10.9636ZM68.9588 1.956C77.1021 1.956 83.3289 4.96424 87.8228 10.956L90.2228 9.156C85.1166 2.34775 77.9674 -1.044 68.9588 -1.044V1.956ZM87.8374 10.9752C92.438 16.9075 94.8188 24.9966 94.8188 35.4H97.8188C97.8188 24.5554 95.3355 15.7485 90.2081 9.13676L87.8374 10.9752ZM94.8188 35.4C94.8188 45.735 92.4398 53.8648 87.8285 59.9324L90.217 61.7476C95.3337 55.0152 97.8188 46.185 97.8188 35.4H94.8188ZM68.9588 13.932C64.4517 13.932 60.9542 15.8556 58.6731 19.6513C56.4652 23.3252 55.4588 28.6427 55.4588 35.4H58.4588C58.4588 28.8453 59.4523 24.1788 61.2444 21.1967C62.9633 18.3364 65.4658 16.932 68.9588 16.932V13.932ZM55.4588 35.4C55.4588 42.1573 56.4652 47.4748 58.6731 51.1487C60.9542 54.9444 64.4517 56.868 68.9588 56.868V53.868C65.4658 53.868 62.9633 52.4636 61.2444 49.6033C59.4523 46.6212 58.4588 41.9547 58.4588 35.4H55.4588ZM68.9588 56.868C73.4658 56.868 76.9633 54.9444 79.2444 51.1487C81.4523 47.4748 82.4588 42.1573 82.4588 35.4H79.4588C79.4588 41.9547 78.4652 46.6212 76.6731 49.6033C74.9542 52.4636 72.4517 53.868 68.9588 53.868V56.868ZM82.4588 35.4C82.4588 28.6427 81.4523 23.3252 79.2444 19.6513C76.9633 15.8556 73.4658 13.932 68.9588 13.932V16.932C72.4517 16.932 74.9542 18.3364 76.6731 21.1967C78.4652 24.1788 79.4588 28.8453 79.4588 35.4H82.4588ZM149.492 60.84L148.297 59.9324L148.296 59.9342L149.492 60.84ZM109.268 60.84L108.067 61.74L108.075 61.7505L108.083 61.7609L109.268 60.84ZM109.268 10.056L108.073 9.14837L108.072 9.15021L109.268 10.056ZM149.492 10.056L148.292 10.956L148.299 10.9657L148.306 10.9752L149.492 10.056ZM148.296 59.9342C143.804 65.863 137.577 68.844 129.428 68.844V71.844C138.43 71.844 145.579 68.489 150.687 61.7458L148.296 59.9342ZM129.428 68.844C121.346 68.844 115.076 65.8649 110.452 59.9191L108.083 61.7609C113.315 68.4871 120.485 71.844 129.428 71.844V68.844ZM110.467 59.94C105.916 53.8718 103.567 45.7389 103.567 35.4H100.567C100.567 46.1811 103.019 55.0082 108.067 61.74L110.467 59.94ZM103.567 35.4C103.567 25.0601 105.917 16.9631 110.463 10.9618L108.072 9.15021C103.018 15.8209 100.567 24.6199 100.567 35.4H103.567ZM110.462 10.9636C115.021 4.9649 121.284 1.956 129.428 1.956V-1.044C120.419 -1.044 113.242 2.3471 108.073 9.14837L110.462 10.9636ZM129.428 1.956C137.571 1.956 143.798 4.96424 148.292 10.956L150.691 9.156C145.585 2.34775 138.436 -1.044 129.428 -1.044V1.956ZM148.306 10.9752C152.907 16.9075 155.288 24.9966 155.288 35.4H158.288C158.288 24.5554 155.804 15.7485 150.677 9.13676L148.306 10.9752ZM155.288 35.4C155.288 45.735 152.909 53.8648 148.297 59.9324L150.686 61.7476C155.802 55.0152 158.288 46.185 158.288 35.4H155.288ZM129.428 13.932C124.92 13.932 121.423 15.8556 119.142 19.6513C116.934 23.3252 115.927 28.6427 115.927 35.4H118.927C118.927 28.8453 119.921 24.1788 121.713 21.1967C123.432 18.3364 125.935 16.932 129.428 16.932V13.932ZM115.927 35.4C115.927 42.1573 116.934 47.4748 119.142 51.1487C121.423 54.9444 124.92 56.868 129.428 56.868V53.868C125.935 53.868 123.432 52.4636 121.713 49.6033C119.921 46.6212 118.927 41.9547 118.927 35.4H115.927ZM129.428 56.868C133.935 56.868 137.432 54.9444 139.713 51.1487C141.921 47.4748 142.928 42.1573 142.928 35.4H139.928C139.928 41.9547 138.934 46.6212 137.142 49.6033C135.423 52.4636 132.92 53.868 129.428 53.868V56.868ZM142.928 35.4C142.928 28.6427 141.921 23.3252 139.713 19.6513C137.432 15.8556 133.935 13.932 129.428 13.932V16.932C132.92 16.932 135.423 18.3364 137.142 21.1967C138.934 24.1788 139.928 28.8453 139.928 35.4H142.928ZM193.256 28.68H191.756V30.18H193.256V28.68ZM208.616 28.68H210.116V27.18H208.616V28.68ZM208.616 42.12V43.62H210.116V42.12H208.616ZM193.256 42.12V40.62H191.756V42.12H193.256ZM193.256 57.48V58.98H194.756V57.48H193.256ZM179.816 57.48H178.316V58.98H179.816V57.48ZM179.816 42.12H181.316V40.62H179.816V42.12ZM164.456 42.12H162.956V43.62H164.456V42.12ZM164.456 28.68V27.18H162.956V28.68H164.456ZM179.816 28.68V30.18H181.316V28.68H179.816ZM179.816 13.32V11.82H178.316V13.32H179.816ZM193.256 13.32H194.756V11.82H193.256V13.32ZM193.256 30.18H208.616V27.18H193.256V30.18ZM207.116 28.68V42.12H210.116V28.68H207.116ZM208.616 40.62H193.256V43.62H208.616V40.62ZM191.756 42.12V57.48H194.756V42.12H191.756ZM193.256 55.98H179.816V58.98H193.256V55.98ZM181.316 57.48V42.12H178.316V57.48H181.316ZM179.816 40.62H164.456V43.62H179.816V40.62ZM165.956 42.12V28.68H162.956V42.12H165.956ZM164.456 30.18H179.816V27.18H164.456V30.18ZM181.316 28.68V13.32H178.316V28.68H181.316ZM179.816 14.82H193.256V11.82H179.816V14.82ZM191.756 13.32V28.68H194.756V13.32H191.756Z" fill="white"/>
</svg>
