<svg width="200" height="71" viewBox="0 0 200 71" fill="none" xmlns="http://www.w3.org/2000/svg">
<path d="M0.46 8.136L-0.0488985 6.72496L-1.36605 7.2L-0.982683 8.54669L0.46 8.136ZM18.028 1.8V0.299995H17.7658L17.5191 0.38896L18.028 1.8ZM31.468 1.8H32.968V0.299995H31.468V1.8ZM31.468 69V70.5H32.968V69H31.468ZM16.108 69H14.608V70.5H16.108V69ZM16.108 18.024H17.608V16.0573L15.7114 16.5774L16.108 18.024ZM4.204 21.288L2.76132 21.6987L3.16804 23.1274L4.60065 22.7346L4.204 21.288ZM0.968899 9.54704L18.5369 3.21103L17.5191 0.38896L-0.0488985 6.72496L0.968899 9.54704ZM18.028 3.3H31.468V0.299995H18.028V3.3ZM29.968 1.8V69H32.968V1.8H29.968ZM31.468 67.5H16.108V70.5H31.468V67.5ZM17.608 69V18.024H14.608V69H17.608ZM15.7114 16.5774L3.80735 19.8414L4.60065 22.7346L16.5047 19.4706L15.7114 16.5774ZM5.64668 20.8773L1.90268 7.72531L-0.982683 8.54669L2.76132 21.6987L5.64668 20.8773ZM60.1068 25.416L58.6107 25.3069L58.4934 26.916H60.1068V25.416ZM81.9948 31.368L80.9841 32.4765L80.9922 32.4837L81.9948 31.368ZM81.5148 64.392L82.4781 65.5418L81.5148 64.392ZM49.2588 66.696L48.5017 67.991L48.5103 67.9959L49.2588 66.696ZM40.1388 55.944L39.3865 54.6463L38.259 55.2999L38.7486 56.5076L40.1388 55.944ZM53.3867 48.264L54.8019 47.7668L54.2015 46.0579L52.6345 46.9663L53.3867 48.264ZM64.1387 55.368L64.2385 53.8713L64.1887 53.868H64.1387V55.368ZM72.2028 51.816L70.9221 51.0351L70.915 51.0466L70.9082 51.0582L72.2028 51.816ZM72.2988 43.944L71.0042 44.7018L72.2988 43.944ZM64.6188 40.392V41.892H64.6723L64.7256 41.8882L64.6188 40.392ZM43.5947 40.392L42.0986 40.2841L41.9826 41.892H43.5947V40.392ZM46.3787 1.8V0.299995H44.9831L44.8826 1.69207L46.3787 1.8ZM85.2588 1.8H86.7588V0.299995H85.2588V1.8ZM85.2588 16.2V17.7H86.7588V16.2H85.2588ZM60.7788 16.2V14.7H59.3841L59.2827 16.0909L60.7788 16.2ZM60.1068 26.916H65.5788V23.916H60.1068V26.916ZM65.5788 26.916C71.8449 26.916 76.942 28.791 80.9841 32.4764L83.0054 30.2596C78.3435 26.009 72.4966 23.916 65.5788 23.916V26.916ZM80.9922 32.4837C85.0325 36.1142 87.1188 41.1792 87.1188 47.88H90.1188C90.1188 40.5008 87.789 34.5578 82.9973 30.2523L80.9922 32.4837ZM87.1188 47.88C87.1188 54.5455 84.8975 59.6009 80.5514 63.2422L82.4781 65.5418C87.604 61.2471 90.1188 55.2945 90.1188 47.88H87.1188ZM80.5514 63.2422C76.1151 66.9591 70.6753 68.844 64.1387 68.844V71.844C71.2982 71.844 77.4424 69.7609 82.4781 65.5418L80.5514 63.2422ZM64.1387 68.844C58.6608 68.844 53.9677 67.6764 50.0072 65.3961L48.5103 67.9959C52.9978 70.5796 58.2247 71.844 64.1387 71.844V68.844ZM50.0158 65.4011C46.1598 63.1468 43.3325 59.8293 41.5289 55.3804L38.7486 56.5076C40.785 61.5307 44.0377 65.3812 48.5017 67.9909L50.0158 65.4011ZM40.891 57.2417L54.139 49.5617L52.6345 46.9663L39.3865 54.6463L40.891 57.2417ZM51.9716 48.7612C52.8931 51.384 54.3865 53.4498 56.4959 54.8435C58.5937 56.2296 61.1748 56.868 64.1387 56.868V53.868C61.5987 53.868 59.6358 53.3224 58.1496 52.3405C56.675 51.3662 55.5444 49.88 54.8019 47.7668L51.9716 48.7612ZM64.039 56.8647C68.2665 57.1465 71.5932 55.8266 73.4973 52.5738L70.9082 51.0582C69.7403 53.0534 67.691 54.1015 64.2385 53.8713L64.039 56.8647ZM73.4834 52.5969C74.3994 51.0948 74.9068 49.5226 74.9266 47.8983C74.9465 46.273 74.4768 44.6956 73.5933 43.1862L71.0042 44.7018C71.6567 45.8164 71.939 46.863 71.9269 47.8617C71.9147 48.8614 71.6061 49.9132 70.9221 51.0351L73.4834 52.5969ZM73.5933 43.1862C72.6832 41.6315 71.4365 40.4573 69.8564 39.7266C68.2916 39.0028 66.4891 38.7546 64.5119 38.8958L64.7256 41.8882C66.3325 41.7734 67.6019 41.9892 68.5971 42.4494C69.577 42.9027 70.3783 43.6325 71.0042 44.7018L73.5933 43.1862ZM64.6188 38.892H43.5947V41.892H64.6188V38.892ZM45.0909 40.4999L47.8749 1.90792L44.8826 1.69207L42.0986 40.2841L45.0909 40.4999ZM46.3787 3.3H85.2588V0.299995H46.3787V3.3ZM83.7588 1.8V16.2H86.7588V1.8H83.7588ZM85.2588 14.7H60.7788V17.7H85.2588V14.7ZM59.2827 16.0909L58.6107 25.3069L61.6028 25.5251L62.2748 16.3091L59.2827 16.0909ZM140.367 60.84L139.172 59.9324L139.171 59.9342L140.367 60.84ZM100.143 60.84L98.9425 61.74L98.9504 61.7505L98.9585 61.7609L100.143 60.84ZM100.143 10.056L98.9483 9.14837L98.9469 9.15021L100.143 10.056ZM140.367 10.056L139.167 10.956L139.174 10.9657L139.181 10.9752L140.367 10.056ZM139.171 59.9342C134.679 65.863 128.452 68.844 120.303 68.844V71.844C129.305 71.844 136.454 68.489 141.562 61.7458L139.171 59.9342ZM120.303 68.844C112.221 68.844 105.951 65.8649 101.327 59.9191L98.9585 61.7609C104.19 68.4871 111.36 71.844 120.303 71.844V68.844ZM101.342 59.94C96.7913 53.8718 94.4425 45.7389 94.4425 35.4H91.4425C91.4425 46.1811 93.8937 55.0082 98.9425 61.74L101.342 59.94ZM94.4425 35.4C94.4425 25.0601 96.7917 16.9631 101.338 10.9618L98.9469 9.15021C93.8933 15.8209 91.4425 24.6199 91.4425 35.4H94.4425ZM101.337 10.9636C105.896 4.9649 112.159 1.956 120.303 1.956V-1.044C111.294 -1.044 104.117 2.3471 98.9483 9.14837L101.337 10.9636ZM120.303 1.956C128.446 1.956 134.673 4.96424 139.167 10.956L141.566 9.156C136.46 2.34775 129.311 -1.044 120.303 -1.044V1.956ZM139.181 10.9752C143.782 16.9075 146.163 24.9966 146.163 35.4H149.163C149.163 24.5554 146.679 15.7485 141.552 9.13676L139.181 10.9752ZM146.163 35.4C146.163 45.735 143.784 53.8648 139.172 59.9324L141.561 61.7476C146.677 55.0152 149.163 46.185 149.163 35.4H146.163ZM120.303 13.932C115.795 13.932 112.298 15.8556 110.017 19.6513C107.809 23.3252 106.802 28.6427 106.802 35.4H109.802C109.802 28.8453 110.796 24.1788 112.588 21.1967C114.307 18.3364 116.81 16.932 120.303 16.932V13.932ZM106.802 35.4C106.802 42.1573 107.809 47.4748 110.017 51.1487C112.298 54.9444 115.795 56.868 120.303 56.868V53.868C116.81 53.868 114.307 52.4636 112.588 49.6033C110.796 46.6212 109.802 41.9547 109.802 35.4H106.802ZM120.303 56.868C124.81 56.868 128.307 54.9444 130.588 51.1487C132.796 47.4748 133.803 42.1573 133.803 35.4H130.803C130.803 41.9547 129.809 46.6212 128.017 49.6033C126.298 52.4636 123.795 53.868 120.303 53.868V56.868ZM133.803 35.4C133.803 28.6427 132.796 23.3252 130.588 19.6513C128.307 15.8556 124.81 13.932 120.303 13.932V16.932C123.795 16.932 126.298 18.3364 128.017 21.1967C129.809 24.1788 130.803 28.8453 130.803 35.4H133.803ZM184.131 28.68H182.631V30.18H184.131V28.68ZM199.491 28.68H200.991V27.18H199.491V28.68ZM199.491 42.12V43.62H200.991V42.12H199.491ZM184.131 42.12V40.62H182.631V42.12H184.131ZM184.131 57.48V58.98H185.631V57.48H184.131ZM170.691 57.48H169.191V58.98H170.691V57.48ZM170.691 42.12H172.191V40.62H170.691V42.12ZM155.331 42.12H153.831V43.62H155.331V42.12ZM155.331 28.68V27.18H153.831V28.68H155.331ZM170.691 28.68V30.18H172.191V28.68H170.691ZM170.691 13.32V11.82H169.191V13.32H170.691ZM184.131 13.32H185.631V11.82H184.131V13.32ZM184.131 30.18H199.491V27.18H184.131V30.18ZM197.991 28.68V42.12H200.991V28.68H197.991ZM199.491 40.62H184.131V43.62H199.491V40.62ZM182.631 42.12V57.48H185.631V42.12H182.631ZM184.131 55.98H170.691V58.98H184.131V55.98ZM172.191 57.48V42.12H169.191V57.48H172.191ZM170.691 40.62H155.331V43.62H170.691V40.62ZM156.831 42.12V28.68H153.831V42.12H156.831ZM155.331 30.18H170.691V27.18H155.331V30.18ZM172.191 28.68V13.32H169.191V28.68H172.191ZM170.691 14.82H184.131V11.82H170.691V14.82ZM182.631 13.32V28.68H185.631V13.32H182.631Z" fill="white"/>
</svg>
