<svg width="32" height="20" viewBox="0 0 32 20" fill="none" xmlns="http://www.w3.org/2000/svg">
<path d="M9.25002 0C10.188 0 11.036 0.078 11.813 0.25C12.579 0.422 13.24 0.688 13.792 1.063C14.339 1.438 14.766 1.928 15.073 2.558C15.37 3.183 15.526 3.959 15.526 4.865C15.526 5.849 15.297 6.678 14.849 7.344C14.396 8.011 13.734 8.542 12.844 8.969C14.052 9.318 14.948 9.927 15.542 10.797C16.141 11.677 16.427 12.729 16.427 13.943C16.427 14.943 16.255 15.797 15.88 16.516C15.5199 17.2344 14.9887 17.8533 14.333 18.318C13.692 18.782 12.932 19.115 12.109 19.339C11.2786 19.5633 10.4222 19.6773 9.56202 19.678H-0.000976562V0.0109997H9.24902L9.25002 0ZM22.589 16.214C23.173 16.7873 24.015 17.0737 25.115 17.073C25.901 17.0737 26.5797 16.874 27.151 16.474C27.719 16.089 28.057 15.661 28.193 15.224H31.641C31.105 16.927 30.245 18.156 29.11 18.891C27.975 19.636 26.6 19.995 25.006 19.995C23.886 19.995 22.891 19.823 21.975 19.464C21.1127 19.1236 20.3317 18.6054 19.683 17.943C19.063 17.2917 18.5837 16.5053 18.245 15.584C17.737 14.202 17.745 13.652 17.745 12.558C17.745 11.485 17.927 10.506 18.287 9.584C18.6221 8.69879 19.1284 7.88834 19.777 7.199C20.438 6.517 21.194 6.006 22.095 5.605C22.991 5.204 23.96 5.027 25.053 5.027C26.267 5.027 27.308 5.246 28.225 5.725C29.0958 6.16941 29.8531 6.8074 30.439 7.59C31.028 8.371 31.439 9.272 31.694 10.288C31.949 11.288 32.027 12.34 31.975 13.46H21.72C21.72 14.58 22.095 15.637 22.668 16.21L22.559 16.252L22.589 16.214ZM8.93202 16.281C9.35402 16.281 9.76002 16.239 10.14 16.156C10.5004 16.0856 10.8447 15.9497 11.156 15.755C11.437 15.578 11.677 15.317 11.854 14.979C12.026 14.661 12.104 14.219 12.104 13.698C12.104 12.698 11.812 11.979 11.25 11.542C10.677 11.115 9.93202 10.901 9.00002 10.901H4.31802V16.302H8.93302V16.26L8.93202 16.281ZM27.078 8.75C26.604 8.234 25.823 7.958 24.864 7.958C24.244 7.958 23.729 8.057 23.312 8.276C22.9282 8.46202 22.5902 8.73039 22.322 9.062C22.0823 9.35655 21.9051 9.69678 21.801 10.062C21.7082 10.3707 21.6489 10.6886 21.624 11.01H27.973C27.879 10.01 27.53 9.276 27.067 8.755V8.771L27.078 8.75ZM8.69302 7.927C9.45902 7.927 10.094 7.75 10.594 7.38C11.094 7.021 11.334 6.416 11.334 5.594C11.334 5.136 11.24 4.761 11.094 4.469C10.9319 4.18969 10.7027 3.95527 10.427 3.787C10.1296 3.61408 9.80276 3.49746 9.46302 3.443C9.09387 3.37317 8.71871 3.34001 8.34302 3.344H4.30702V7.927H8.69302ZM20.823 1.318H28.781V3.255H20.823V1.302V1.318Z" fill="white"/>
</svg>
