<svg width="1920" height="1080" viewBox="0 0 1920 1080" fill="none" xmlns="http://www.w3.org/2000/svg">
<g clip-path="url(#clip0_125_2425)">
<rect width="1920" height="1080" fill="#FF5E40"/>
<circle cx="758" cy="515" r="20" stroke="#F7CB16" stroke-width="6"/>
<circle cx="789.5" cy="547.5" r="14.5" fill="#F7CB16"/>
<path d="M863.43 518.817H837.809L839.007 517.62V583.228H828.423V517.62L829.621 518.817H804V509H863.43V518.817Z" fill="white"/>
<path d="M913.906 533.423C912.182 531.173 910.074 529.449 907.584 528.299C905.046 527.102 902.221 526.479 899.06 526.479C896.474 526.479 894.032 526.91 891.829 527.725C889.578 528.539 887.567 529.736 885.795 531.268C884.023 532.801 882.538 534.668 881.293 536.871C880.096 538.978 879.186 541.373 878.516 544.007V509H868.315V583.419H878.516V553.441C878.516 551.573 878.659 549.849 878.995 548.221C879.33 546.641 879.809 545.156 880.479 543.863C881.102 542.522 881.868 541.373 882.826 540.367C883.784 539.362 884.837 538.5 886.082 537.829C887.279 537.111 888.62 536.584 890.057 536.249C891.541 535.866 893.122 535.722 894.846 535.722C897.24 535.722 899.299 536.057 901.071 536.776C902.843 537.446 904.328 538.5 905.525 539.888C906.722 541.325 907.632 543.049 908.207 545.156C908.255 545.3 908.303 545.443 908.303 545.587C908.494 545.108 908.686 544.677 908.925 544.246C910.41 541.325 912.517 538.835 915.151 536.728C915.342 536.584 915.534 536.44 915.725 536.345C915.199 535.291 914.576 534.333 913.906 533.423ZM912.229 575.278C910.984 573.554 909.931 571.639 909.069 569.484V583.419H919.269V582.126C916.587 580.402 914.241 578.104 912.229 575.278Z" fill="white"/>
<path d="M917.134 554.877C917.181 552.531 917.66 550.424 918.522 548.604C918.858 547.838 919.241 547.167 919.72 546.497C920.39 545.539 921.204 544.677 922.114 543.863C923.694 542.57 925.61 541.612 927.909 540.99C930.064 540.415 932.123 540.223 934.038 540.559C935.954 540.846 937.678 541.564 939.258 542.762C940.839 543.911 942.227 545.491 943.425 547.455C943.951 548.317 944.43 549.274 944.861 550.28L920.103 557.128L917.277 557.894C917.134 556.841 917.086 555.835 917.134 554.877ZM948.453 562.779C948.261 564.455 947.926 565.988 947.399 567.376C946.92 568.765 946.202 570.01 945.34 571.112C944.478 572.165 943.425 573.075 942.179 573.841C940.934 574.608 939.546 575.23 937.965 575.661C935.667 576.284 933.464 576.475 931.357 576.188C929.297 575.901 927.382 575.182 925.706 574.033C923.982 572.932 922.449 571.399 921.204 569.484C920.821 568.861 920.438 568.238 920.103 567.568C919.767 566.945 919.48 566.323 919.193 565.605L920.103 565.365L955.971 555.404C955.876 554.782 955.732 554.159 955.636 553.584C955.493 553.058 955.349 552.483 955.205 551.956C954.152 548.125 952.619 544.773 950.704 541.995C948.788 539.17 946.537 536.919 943.999 535.291C941.413 533.663 938.588 532.657 935.475 532.226C932.362 531.795 929.106 532.082 925.61 533.04C922.353 533.95 919.48 535.339 917.038 537.159C917.038 537.159 916.75 537.398 916.607 537.494C914.021 539.505 912.057 541.9 910.621 544.677C910.19 545.539 909.807 546.401 909.519 547.311C909.423 547.598 909.28 547.886 909.232 548.221C908.561 550.041 908.226 551.956 908.083 553.968C907.795 557.416 908.178 561.007 909.232 564.79C909.376 565.461 909.615 566.083 909.807 566.658C909.854 566.754 909.854 566.85 909.902 566.945C910.908 569.867 912.201 572.453 913.829 574.751C915.649 577.289 917.756 579.349 920.103 580.929C920.342 581.12 920.629 581.312 920.869 581.456C923.551 583.084 926.52 584.137 929.776 584.568C932.985 584.952 936.385 584.712 939.977 583.706C942.754 582.94 945.292 581.791 947.495 580.354C949.698 578.918 951.518 577.146 953.002 575.134C954.487 573.171 955.636 570.872 956.355 568.382C957.073 565.892 957.408 563.21 957.264 560.337L948.453 562.779Z" fill="#F7CB16"/>
<path d="M966.726 583.42L993.543 511.539H1009.39L1035.83 583.468H1024.62L999.625 514.891H1003.03L977.692 583.468H966.726V583.42Z" fill="white"/>
<path d="M1077.84 528.012L1054.9 586.963C1053.75 589.932 1052.41 592.47 1050.88 594.625C1049.34 596.78 1047.57 598.552 1045.61 599.941C1043.6 601.329 1041.39 602.383 1038.95 603.053C1036.51 603.724 1033.78 604.059 1030.76 604.059C1029.95 604.059 1029.14 604.059 1028.37 603.963C1027.6 603.915 1026.84 603.82 1026.12 603.724V594.864C1027.03 594.96 1027.84 595.056 1028.61 595.104C1029.37 595.152 1030.09 595.2 1030.81 595.2C1032.49 595.2 1034.02 595.056 1035.36 594.721C1036.7 594.386 1037.95 593.907 1039 593.236C1040.05 592.566 1041.01 591.704 1041.78 590.65C1042.54 589.597 1043.21 588.4 1043.74 586.963L1045.66 581.791L1045.23 587.25L1022.43 528.06H1033.01L1052.41 580.163H1047.96L1067.54 528.06H1077.84V528.012Z" fill="white"/>
<path d="M1077.8 538.691C1078.95 536.105 1080.67 533.95 1082.83 532.13C1085.03 530.311 1087.66 528.922 1090.78 527.964C1093.89 527.006 1097.39 526.527 1101.26 526.527C1105.38 526.527 1109.07 527.054 1112.28 528.156C1115.53 529.257 1118.26 530.837 1120.56 532.897C1122.81 534.956 1124.54 537.494 1125.78 540.463C1126.98 543.432 1127.6 546.832 1127.6 550.568V583.467H1117.4V568.286H1117.5C1117.07 570.01 1116.44 571.639 1115.73 573.123C1114.96 574.608 1114.1 575.996 1113.04 577.242C1111.99 578.487 1110.84 579.588 1109.5 580.546C1108.21 581.504 1106.77 582.318 1105.19 582.988C1103.61 583.659 1101.98 584.138 1100.21 584.473C1098.44 584.808 1096.57 585 1094.61 585C1091.59 585 1088.81 584.616 1086.32 583.802C1083.83 582.988 1081.73 581.887 1079.95 580.402C1078.18 578.918 1076.84 577.194 1075.84 575.134C1074.88 573.075 1074.4 570.777 1074.4 568.286C1074.4 565.796 1074.88 563.498 1075.88 561.438C1076.89 559.427 1078.33 557.703 1080.19 556.266C1082.06 554.83 1084.31 553.776 1086.99 553.01C1089.67 552.244 1092.64 551.861 1096 551.861H1117.79V560.385H1095.9C1094.03 560.385 1092.36 560.528 1090.97 560.864C1089.53 561.199 1088.33 561.678 1087.38 562.3C1086.42 562.923 1085.7 563.737 1085.17 564.647C1084.69 565.605 1084.46 566.658 1084.46 567.903C1084.46 569.196 1084.74 570.393 1085.32 571.399C1085.89 572.405 1086.71 573.267 1087.81 573.985C1088.91 574.656 1090.25 575.182 1091.83 575.565C1093.41 575.949 1095.28 576.092 1097.34 576.092C1099.3 576.092 1101.17 575.949 1102.89 575.613C1104.66 575.278 1106.24 574.847 1107.78 574.272C1109.31 573.698 1110.6 572.979 1111.8 572.117C1113 571.255 1114 570.346 1114.86 569.292C1115.73 568.238 1116.35 567.089 1116.78 565.844C1117.21 564.599 1117.45 563.306 1117.45 561.917V550.568C1117.45 548.269 1117.07 546.258 1116.3 544.39C1115.53 542.57 1114.43 540.99 1113.04 539.697C1111.66 538.404 1109.93 537.398 1107.92 536.728C1105.91 536.057 1103.66 535.674 1101.12 535.674C1098.58 535.674 1096.33 535.961 1094.46 536.488C1092.6 537.063 1091.06 537.829 1089.82 538.835C1088.62 539.84 1087.71 541.038 1087.09 542.474C1086.51 543.911 1086.18 545.491 1086.18 547.215H1075.98C1075.98 544.055 1076.55 541.133 1077.75 538.595L1077.8 538.691Z" fill="white"/>
<path d="M1175.62 528.012H1131.18V536.584H1164.03L1130.17 574.272V583.419H1168.06C1167.15 583.132 1166.38 582.701 1165.66 582.222C1164.7 581.456 1163.94 580.498 1163.41 579.396C1162.93 578.343 1162.37 576.889 1162.37 575.5V574.847H1141.81L1175.62 537.158V528.012Z" fill="white"/>
<path d="M1186.99 580.946C1186.34 582.327 1185.59 583.406 1184.58 584.184C1184.04 584.676 1183.43 585.016 1182.72 585.307C1182.24 585.519 1181.73 585.654 1181.22 585.79C1179.91 586.117 1178.52 586.091 1176.94 585.788C1175.41 585.511 1173.71 584.906 1171.88 584.05C1170.04 583.194 1168.38 582.233 1167.16 581.164C1165.88 580.07 1165.01 578.918 1164.37 577.686C1163.81 576.427 1163.53 575.113 1163.58 573.768C1163.63 572.422 1164.04 570.995 1164.74 569.511L1169.19 571.59C1168.81 572.408 1168.66 573.147 1168.66 573.832C1168.69 574.592 1168.87 575.299 1169.25 575.978C1169.62 576.707 1170.21 577.356 1170.95 577.952C1171.75 578.573 1172.67 579.191 1173.88 579.753C1174.93 580.242 1175.92 580.58 1176.85 580.767C1177.77 581.005 1178.62 581.092 1179.36 581.003C1180.11 580.913 1180.74 580.649 1181.27 580.335C1181.82 579.97 1182.24 579.481 1182.55 578.816C1182.79 578.305 1182.88 577.847 1182.86 577.34C1182.85 577.086 1182.79 576.808 1182.73 576.53C1182.72 576.403 1182.66 576.252 1182.63 576.05C1182.46 575.596 1182.19 575.22 1181.89 574.769C1181.54 574.42 1181.16 573.995 1180.76 573.622C1180.28 573.275 1179.86 572.826 1179.38 572.479C1178.88 572.183 1178.4 571.836 1177.9 571.414L1176.38 570.273C1175.8 569.877 1175.17 569.457 1174.58 568.934C1173.9 568.49 1173.33 567.916 1172.69 567.369C1172.11 566.846 1171.57 566.222 1171.11 565.57C1170.67 564.867 1170.28 564.189 1170.07 563.406C1169.79 562.65 1169.71 561.865 1169.75 560.951C1169.84 560.062 1170.07 559.17 1170.52 558.198C1171.12 556.919 1171.9 555.916 1172.85 555.114C1173.8 554.311 1174.94 553.784 1176.14 553.534C1177.45 553.207 1178.81 553.158 1180.31 553.361C1181.79 553.614 1183.35 554.094 1184.98 554.852C1186.71 555.659 1188.14 556.573 1189.26 557.594C1190.35 558.666 1191.24 559.766 1191.75 561.001C1192.32 562.259 1192.57 563.498 1192.52 564.843C1192.49 566.137 1192.1 567.514 1191.46 568.895L1187 566.816C1187.31 566.151 1187.49 565.362 1187.49 564.677C1187.49 563.992 1187.28 563.336 1186.95 562.682C1186.64 561.977 1186.15 561.377 1185.46 560.805C1184.77 560.234 1183.95 559.665 1182.95 559.2C1182.06 558.784 1181.17 558.495 1180.34 558.357C1179.54 558.168 1178.71 558.157 1178.05 558.22C1177.35 558.333 1176.74 558.547 1176.19 558.912C1175.66 559.225 1175.32 559.688 1175.06 560.25C1174.87 560.66 1174.73 561.093 1174.76 561.422C1174.81 561.878 1174.9 562.232 1175.04 562.61C1175.21 563.063 1175.46 563.364 1175.8 563.713C1176.1 564.037 1176.42 564.438 1176.8 564.736C1177.22 565.058 1177.64 565.38 1178.07 565.703C1178.49 566.025 1178.94 566.297 1179.34 566.67L1180.88 567.76C1181.51 568.18 1182.2 568.625 1182.89 569.196C1183.55 569.692 1184.24 570.263 1184.86 570.861C1185.5 571.408 1186.09 572.058 1186.58 572.785C1187.07 573.512 1187.43 574.241 1187.69 575.049C1187.93 575.907 1188.02 576.819 1187.92 577.708C1187.86 578.673 1187.56 579.719 1187.06 580.793L1186.99 580.946Z" fill="#F7CB16"/>
<path d="M1592 0L1592 474" stroke="#F7CB16" stroke-width="2"/>
<mask id="path-12-inside-1_125_2425" fill="white">
<path d="M1764 0H1920V118H1764V0Z"/>
</mask>
<path d="M1920 116H1764V120H1920V116Z" fill="#F7CB16" mask="url(#path-12-inside-1_125_2425)"/>
<path d="M1822.55 65V52.256H1824.33V57.584H1830.77V52.256H1832.57V65H1830.77V59.168H1824.33V65H1822.55ZM1842.9 57.494C1843.77 58.334 1844.21 59.408 1844.21 60.716C1844.21 62.024 1843.77 63.104 1842.88 63.956C1842 64.808 1840.91 65.234 1839.6 65.234C1838.3 65.234 1837.2 64.808 1836.33 63.956C1835.45 63.104 1835.01 62.024 1835.01 60.716C1835.01 59.408 1835.45 58.334 1836.31 57.494C1837.19 56.654 1838.28 56.234 1839.6 56.234C1840.92 56.234 1842.02 56.654 1842.9 57.494ZM1841.67 62.912C1842.19 62.3 1842.45 61.568 1842.45 60.716C1842.45 59.864 1842.19 59.138 1841.67 58.538C1841.17 57.938 1840.48 57.638 1839.6 57.638C1838.73 57.638 1838.03 57.938 1837.52 58.538C1837.01 59.138 1836.76 59.864 1836.76 60.716C1836.76 61.568 1837.01 62.3 1837.52 62.912C1838.03 63.512 1838.73 63.812 1839.6 63.812C1840.48 63.812 1841.17 63.512 1841.67 62.912ZM1848.21 57.872C1848.44 57.392 1848.8 57.002 1849.28 56.702C1849.76 56.39 1850.31 56.234 1850.93 56.234C1852.2 56.234 1853.09 56.804 1853.58 57.944C1853.87 57.404 1854.27 56.984 1854.78 56.684C1855.3 56.384 1855.86 56.234 1856.48 56.234C1857.52 56.234 1858.31 56.558 1858.85 57.206C1859.39 57.854 1859.66 58.688 1859.66 59.708V65H1857.97V60.266C1857.97 58.526 1857.34 57.656 1856.08 57.656C1855.36 57.656 1854.82 57.926 1854.46 58.466C1854.1 59.006 1853.92 59.648 1853.92 60.392V65H1852.23V59.924C1852.23 58.412 1851.63 57.656 1850.43 57.656C1849.8 57.656 1849.28 57.914 1848.86 58.43C1848.45 58.946 1848.25 59.624 1848.25 60.464V65H1846.56V58.304C1846.56 57.572 1846.53 56.96 1846.49 56.468H1848.09C1848.14 57.044 1848.16 57.512 1848.16 57.872H1848.21ZM1863.69 59.978H1868.76C1868.74 59.27 1868.52 58.694 1868.12 58.25C1867.71 57.794 1867.13 57.566 1866.37 57.566C1865.65 57.566 1865.04 57.8 1864.53 58.268C1864.03 58.736 1863.75 59.306 1863.69 59.978ZM1870.47 60.662C1870.47 60.914 1870.47 61.106 1870.46 61.238H1863.69C1863.71 61.97 1863.99 62.588 1864.53 63.092C1865.07 63.584 1865.72 63.83 1866.46 63.83C1867.53 63.83 1868.36 63.398 1868.94 62.534L1870.13 63.488C1869.23 64.652 1868.01 65.234 1866.46 65.234C1865.15 65.234 1864.07 64.82 1863.22 63.992C1862.38 63.164 1861.96 62.084 1861.96 60.752C1861.96 59.432 1862.38 58.352 1863.22 57.512C1864.06 56.66 1865.11 56.234 1866.37 56.234C1867.63 56.234 1868.63 56.636 1869.36 57.44C1870.1 58.232 1870.47 59.306 1870.47 60.662Z" fill="white"/>
<mask id="path-15-inside-2_125_2425" fill="white">
<path d="M1764 118H1920V236H1764V118Z"/>
</mask>
<path d="M1920 234H1764V238H1920V234Z" fill="#F7CB16" mask="url(#path-15-inside-2_125_2425)"/>
<path d="M1829.11 170.256L1831.91 180.408H1831.95L1834.94 170.256H1836.9L1839.87 180.408H1839.91L1842.71 170.256H1844.6L1840.86 183H1839.01L1835.91 172.758H1835.87L1832.78 183H1830.92L1827.18 170.256H1829.11ZM1852.92 175.494C1853.8 176.334 1854.24 177.408 1854.24 178.716C1854.24 180.024 1853.79 181.104 1852.9 181.956C1852.03 182.808 1850.94 183.234 1849.63 183.234C1848.32 183.234 1847.23 182.808 1846.35 181.956C1845.48 181.104 1845.04 180.024 1845.04 178.716C1845.04 177.408 1845.47 176.334 1846.33 175.494C1847.21 174.654 1848.31 174.234 1849.63 174.234C1850.95 174.234 1852.05 174.654 1852.92 175.494ZM1851.7 180.912C1852.21 180.3 1852.47 179.568 1852.47 178.716C1852.47 177.864 1852.21 177.138 1851.7 176.538C1851.19 175.938 1850.5 175.638 1849.63 175.638C1848.75 175.638 1848.06 175.938 1847.54 176.538C1847.04 177.138 1846.78 177.864 1846.78 178.716C1846.78 179.568 1847.04 180.3 1847.54 180.912C1848.06 181.512 1848.75 181.812 1849.63 181.812C1850.5 181.812 1851.19 181.512 1851.7 180.912ZM1856.58 176.304C1856.58 175.572 1856.56 174.96 1856.51 174.468H1858.11C1858.16 175.044 1858.19 175.524 1858.19 175.908H1858.24C1858.48 175.404 1858.83 175.002 1859.3 174.702C1859.77 174.39 1860.29 174.234 1860.85 174.234C1861.11 174.234 1861.34 174.258 1861.52 174.306L1861.44 175.872C1861.2 175.812 1860.95 175.782 1860.67 175.782C1859.9 175.782 1859.31 176.046 1858.89 176.574C1858.48 177.102 1858.28 177.75 1858.28 178.518V183H1856.58V176.304ZM1864.83 169.392V178.176H1864.89L1868.47 174.468H1870.74L1866.74 178.338L1871.08 183H1868.74L1864.89 178.572H1864.83V183H1863.14V169.392H1864.83Z" fill="white"/>
<mask id="path-18-inside-3_125_2425" fill="white">
<path d="M1764 236H1920V354H1764V236Z"/>
</mask>
<path d="M1920 352H1764V356H1920V352Z" fill="#F7CB16" mask="url(#path-18-inside-3_125_2425)"/>
<path d="M1823.35 297.868L1822.07 301H1820.09L1825.62 288.256H1827.24L1832.71 301H1830.69L1829.4 297.868H1823.35ZM1826.37 290.326L1823.98 296.302H1828.75L1826.37 290.326ZM1835.96 299.65H1835.93V301H1834.29V287.392H1835.98V293.746H1836.04C1836.35 293.302 1836.77 292.942 1837.3 292.666C1837.82 292.378 1838.42 292.234 1839.08 292.234C1840.33 292.234 1841.35 292.666 1842.14 293.53C1842.94 294.382 1843.34 295.444 1843.34 296.716C1843.34 298 1842.95 299.074 1842.16 299.938C1841.36 300.802 1840.33 301.234 1839.04 301.234C1838.43 301.234 1837.84 301.096 1837.28 300.82C1836.73 300.544 1836.29 300.154 1835.96 299.65ZM1840.84 298.912C1841.35 298.3 1841.6 297.568 1841.6 296.716C1841.6 295.864 1841.35 295.138 1840.84 294.538C1840.34 293.938 1839.64 293.638 1838.75 293.638C1837.91 293.638 1837.22 293.944 1836.68 294.556C1836.14 295.168 1835.87 295.894 1835.87 296.734C1835.87 297.574 1836.14 298.3 1836.68 298.912C1837.22 299.512 1837.91 299.812 1838.75 299.812C1839.64 299.812 1840.34 299.512 1840.84 298.912ZM1853.02 293.494C1853.9 294.334 1854.34 295.408 1854.34 296.716C1854.34 298.024 1853.89 299.104 1853.01 299.956C1852.13 300.808 1851.04 301.234 1849.73 301.234C1848.42 301.234 1847.33 300.808 1846.45 299.956C1845.58 299.104 1845.14 298.024 1845.14 296.716C1845.14 295.408 1845.57 294.334 1846.44 293.494C1847.31 292.654 1848.41 292.234 1849.73 292.234C1851.05 292.234 1852.15 292.654 1853.02 293.494ZM1851.8 298.912C1852.32 298.3 1852.57 297.568 1852.57 296.716C1852.57 295.864 1852.32 295.138 1851.8 294.538C1851.3 293.938 1850.61 293.638 1849.73 293.638C1848.85 293.638 1848.16 293.938 1847.64 294.538C1847.14 295.138 1846.89 295.864 1846.89 296.716C1846.89 297.568 1847.14 298.3 1847.64 298.912C1848.16 299.512 1848.85 299.812 1849.73 299.812C1850.61 299.812 1851.3 299.512 1851.8 298.912ZM1864.3 301H1862.7C1862.65 300.424 1862.62 299.956 1862.62 299.596H1862.59C1862.36 300.064 1861.99 300.454 1861.47 300.766C1860.96 301.078 1860.4 301.234 1859.8 301.234C1858.75 301.234 1857.96 300.91 1857.42 300.262C1856.88 299.614 1856.61 298.78 1856.61 297.76V292.468H1858.3V297.184C1858.3 298.936 1858.95 299.812 1860.25 299.812C1860.93 299.812 1861.48 299.554 1861.9 299.038C1862.32 298.522 1862.53 297.844 1862.53 297.004V292.468H1864.23V299.164C1864.23 299.896 1864.25 300.508 1864.3 301ZM1871.34 292.468V293.854H1869.07V298.3C1869.07 298.816 1869.17 299.188 1869.36 299.416C1869.55 299.632 1869.86 299.74 1870.28 299.74C1870.65 299.74 1870.98 299.668 1871.27 299.524L1871.32 300.91C1870.89 301.066 1870.41 301.144 1869.88 301.144C1869.08 301.144 1868.46 300.922 1868.03 300.478C1867.61 300.022 1867.4 299.356 1867.4 298.48V293.854H1865.76V292.468H1867.4V290.02H1869.07V292.468H1871.34Z" fill="white"/>
<mask id="path-21-inside-4_125_2425" fill="white">
<path d="M1764 354H1920V472H1764V354Z"/>
</mask>
<path d="M1920 470H1764V474H1920V470Z" fill="#F7CB16" mask="url(#path-21-inside-4_125_2425)"/>
<path d="M1818.05 416.048L1819.47 417.02C1818.35 418.556 1816.73 419.324 1814.61 419.324C1812.66 419.324 1811.05 418.694 1809.79 417.434C1808.53 416.174 1807.9 414.566 1807.9 412.61C1807.9 410.642 1808.54 409.04 1809.83 407.804C1811.11 406.556 1812.73 405.932 1814.69 405.932C1815.6 405.932 1816.47 406.106 1817.31 406.454C1818.15 406.802 1818.8 407.288 1819.26 407.912L1817.85 408.992C1817.54 408.548 1817.1 408.188 1816.52 407.912C1815.95 407.636 1815.33 407.498 1814.69 407.498C1813.25 407.498 1812.08 407.99 1811.18 408.974C1810.29 409.958 1809.84 411.17 1809.84 412.61C1809.84 414.074 1810.28 415.298 1811.16 416.282C1812.03 417.254 1813.19 417.74 1814.63 417.74C1816.13 417.74 1817.27 417.176 1818.05 416.048ZM1828.32 411.494C1829.19 412.334 1829.63 413.408 1829.63 414.716C1829.63 416.024 1829.19 417.104 1828.3 417.956C1827.42 418.808 1826.33 419.234 1825.02 419.234C1823.72 419.234 1822.62 418.808 1821.75 417.956C1820.87 417.104 1820.43 416.024 1820.43 414.716C1820.43 413.408 1820.87 412.334 1821.73 411.494C1822.61 410.654 1823.7 410.234 1825.02 410.234C1826.34 410.234 1827.44 410.654 1828.32 411.494ZM1827.09 416.912C1827.61 416.3 1827.87 415.568 1827.87 414.716C1827.87 413.864 1827.61 413.138 1827.09 412.538C1826.59 411.938 1825.9 411.638 1825.02 411.638C1824.15 411.638 1823.45 411.938 1822.94 412.538C1822.43 413.138 1822.18 413.864 1822.18 414.716C1822.18 415.568 1822.43 416.3 1822.94 416.912C1823.45 417.512 1824.15 417.812 1825.02 417.812C1825.9 417.812 1826.59 417.512 1827.09 416.912ZM1831.91 410.468H1833.51C1833.56 411.044 1833.58 411.512 1833.58 411.872H1833.63C1833.85 411.404 1834.22 411.014 1834.73 410.702C1835.25 410.39 1835.81 410.234 1836.41 410.234C1837.45 410.234 1838.24 410.558 1838.78 411.206C1839.32 411.854 1839.59 412.688 1839.59 413.708V419H1837.9V414.266C1837.9 412.526 1837.25 411.656 1835.96 411.656C1835.28 411.656 1834.73 411.914 1834.3 412.43C1833.88 412.946 1833.67 413.624 1833.67 414.464V419H1831.98V412.304C1831.98 411.572 1831.95 410.96 1831.91 410.468ZM1846.63 410.468V411.854H1844.36V416.3C1844.36 416.816 1844.46 417.188 1844.65 417.416C1844.84 417.632 1845.15 417.74 1845.57 417.74C1845.94 417.74 1846.27 417.668 1846.56 417.524L1846.61 418.91C1846.18 419.066 1845.7 419.144 1845.17 419.144C1844.37 419.144 1843.75 418.922 1843.32 418.478C1842.9 418.022 1842.69 417.356 1842.69 416.48V411.854H1841.05V410.468H1842.69V408.02H1844.36V410.468H1846.63ZM1853.69 413.708V413.474C1853.69 412.862 1853.5 412.4 1853.11 412.088C1852.74 411.764 1852.23 411.602 1851.58 411.602C1850.62 411.602 1849.81 411.932 1849.15 412.592L1848.25 411.512C1849.14 410.66 1850.3 410.234 1851.74 410.234C1852.92 410.234 1853.81 410.546 1854.41 411.17C1855.01 411.782 1855.31 412.586 1855.31 413.582V417.308C1855.31 418.052 1855.35 418.616 1855.43 419H1853.9C1853.81 418.592 1853.76 418.184 1853.76 417.776H1853.71C1853.07 418.736 1852.12 419.216 1850.84 419.216C1850.48 419.216 1850.13 419.168 1849.78 419.072C1849.43 418.976 1849.1 418.832 1848.79 418.64C1848.48 418.448 1848.23 418.178 1848.04 417.83C1847.84 417.47 1847.75 417.056 1847.75 416.588C1847.75 416.096 1847.86 415.67 1848.09 415.31C1848.33 414.938 1848.63 414.656 1848.99 414.464C1849.35 414.26 1849.81 414.104 1850.36 413.996C1850.92 413.876 1851.45 413.798 1851.94 413.762C1852.45 413.726 1853.03 413.708 1853.69 413.708ZM1853.69 414.932H1853.27C1850.74 414.932 1849.48 415.472 1849.48 416.552C1849.48 417.02 1849.64 417.362 1849.98 417.578C1850.32 417.782 1850.73 417.884 1851.22 417.884C1851.99 417.884 1852.59 417.656 1853.02 417.2C1853.47 416.732 1853.69 416.126 1853.69 415.382V414.932ZM1865.33 411.638L1864.11 412.628C1863.93 412.34 1863.65 412.106 1863.28 411.926C1862.92 411.746 1862.54 411.656 1862.15 411.656C1861.3 411.656 1860.62 411.956 1860.11 412.556C1859.61 413.156 1859.36 413.882 1859.36 414.734C1859.36 415.586 1859.61 416.312 1860.11 416.912C1860.63 417.512 1861.31 417.812 1862.17 417.812C1863.04 417.812 1863.73 417.5 1864.22 416.876L1865.35 417.902C1864.58 418.79 1863.52 419.234 1862.17 419.234C1860.83 419.234 1859.74 418.82 1858.87 417.992C1858.01 417.164 1857.58 416.078 1857.58 414.734C1857.58 413.402 1858 412.322 1858.85 411.494C1859.72 410.654 1860.81 410.234 1862.13 410.234C1862.75 410.234 1863.36 410.36 1863.95 410.612C1864.54 410.852 1865 411.194 1865.33 411.638ZM1871.2 410.468V411.854H1868.94V416.3C1868.94 416.816 1869.03 417.188 1869.22 417.416C1869.42 417.632 1869.72 417.74 1870.14 417.74C1870.51 417.74 1870.84 417.668 1871.13 417.524L1871.19 418.91C1870.75 419.066 1870.27 419.144 1869.75 419.144C1868.94 419.144 1868.32 418.922 1867.89 418.478C1867.47 418.022 1867.26 417.356 1867.26 416.48V411.854H1865.62V410.468H1867.26V408.02H1868.94V410.468H1871.2Z" fill="white"/>
<mask id="path-24-inside-5_125_2425" fill="white">
<path d="M0 633H89V703H0V633Z"/>
</mask>
<path d="M89 701H0V705H89V701Z" fill="#F7CB16" mask="url(#path-24-inside-5_125_2425)"/>
<path d="M45.306 661.088V671H43.948V662.74L42.072 664.308L41.274 663.37L44.088 661.088H45.306Z" fill="white"/>
<mask id="path-28-inside-6_125_2425" fill="white">
<path d="M0 703H89V773H0V703Z"/>
</mask>
<path d="M89 771H0V775H89V771Z" fill="#F7CB16" mask="url(#path-28-inside-6_125_2425)"/>
<path d="M47.308 739.782V741H40.84V739.698L44.788 735.778C45.516 735.031 45.88 734.331 45.88 733.678C45.88 733.174 45.712 732.763 45.376 732.446C45.04 732.129 44.62 731.97 44.116 731.97C43.6213 731.97 43.206 732.129 42.87 732.446C42.5433 732.763 42.338 733.179 42.254 733.692L40.924 733.468C41.0453 732.703 41.4 732.073 41.988 731.578C42.576 731.083 43.29 730.836 44.13 730.836C45.0073 730.836 45.7493 731.083 46.356 731.578C46.9627 732.073 47.266 732.763 47.266 733.65C47.266 734.229 47.1307 734.747 46.86 735.204C46.5893 735.652 46.1927 736.133 45.67 736.646L42.45 739.782H47.308Z" fill="white"/>
<mask id="path-32-inside-7_125_2425" fill="white">
<path d="M0 773H89V843H0V773Z"/>
</mask>
<path d="M89 841H0V845H89V841Z" fill="#F7CB16" mask="url(#path-32-inside-7_125_2425)"/>
<path d="M42.982 806.38V805.26H43.416C44.06 805.26 44.5873 805.134 44.998 804.882C45.418 804.621 45.628 804.196 45.628 803.608C45.628 803.123 45.4553 802.731 45.11 802.432C44.774 802.124 44.3633 801.97 43.878 801.97C43.038 801.97 42.4593 802.376 42.142 803.188L40.91 802.754C41.1527 802.157 41.54 801.69 42.072 801.354C42.6133 801.009 43.234 800.836 43.934 800.836C44.802 800.836 45.5253 801.074 46.104 801.55C46.692 802.026 46.986 802.684 46.986 803.524C46.986 804.075 46.8227 804.555 46.496 804.966C46.1693 805.377 45.7493 805.647 45.236 805.778V805.806C45.8333 805.927 46.3187 806.207 46.692 806.646C47.0653 807.075 47.252 807.603 47.252 808.228C47.252 809.171 46.9253 809.913 46.272 810.454C45.6187 810.986 44.8393 811.252 43.934 811.252C43.1313 811.252 42.436 811.07 41.848 810.706C41.26 810.342 40.8307 809.796 40.56 809.068L41.82 808.648C41.9693 809.087 42.226 809.441 42.59 809.712C42.9633 809.973 43.402 810.104 43.906 810.104C44.4473 810.104 44.914 809.941 45.306 809.614C45.698 809.278 45.894 808.811 45.894 808.214C45.894 807.579 45.6467 807.117 45.152 806.828C44.6667 806.529 44.0833 806.38 43.402 806.38H42.982Z" fill="white"/>
<mask id="path-36-inside-8_125_2425" fill="white">
<path d="M0 843H89V913H0V843Z"/>
</mask>
<path d="M89 911H0V915H89V911Z" fill="#F7CB16" mask="url(#path-36-inside-8_125_2425)"/>
<path d="M46.314 871.088V877.612H47.742V878.774H46.314V881H44.998V878.774H40.434V877.542L44.648 871.088H46.314ZM44.998 877.612V872.642H44.97L41.834 877.612H44.998Z" fill="white"/>
<mask id="path-40-inside-9_125_2425" fill="white">
<path d="M0 913H89V983H0V913Z"/>
</mask>
<path d="M89 981H0V985H89V981Z" fill="#F7CB16" mask="url(#path-40-inside-9_125_2425)"/>
<path d="M46.86 941.088V942.292H42.772L42.688 944.896C43.0427 944.775 43.4673 944.714 43.962 944.714C44.9327 944.714 45.726 944.999 46.342 945.568C46.9673 946.137 47.28 946.893 47.28 947.836C47.28 948.853 46.9533 949.679 46.3 950.314C45.6467 950.939 44.8207 951.252 43.822 951.252C43.066 951.252 42.4173 951.075 41.876 950.72C41.3347 950.365 40.9287 949.88 40.658 949.264L41.89 948.774C42.0487 949.175 42.3007 949.497 42.646 949.74C42.9913 949.983 43.3833 950.104 43.822 950.104C44.41 950.104 44.9 949.908 45.292 949.516C45.6933 949.115 45.894 948.601 45.894 947.976C45.894 947.267 45.67 946.73 45.222 946.366C44.7833 945.993 44.2327 945.806 43.57 945.806C42.8047 945.806 42.072 945.988 41.372 946.352L41.512 941.088H46.86Z" fill="white"/>
<g filter="url(#filter0_d_125_2425)">
<path d="M960.293 988.707C960.683 989.098 961.317 989.098 961.707 988.707L968.071 982.343C968.462 981.953 968.462 981.319 968.071 980.929C967.681 980.538 967.047 980.538 966.657 980.929L961 986.586L955.343 980.929C954.953 980.538 954.319 980.538 953.929 980.929C953.538 981.319 953.538 981.953 953.929 982.343L960.293 988.707ZM960 686L960 988L962 988L962 686L960 686Z" fill="#F7CB16"/>
</g>
<path d="M945.66 1000.1L944.26 1001.46C943.967 1001.06 943.573 1000.74 943.08 1000.5C942.6 1000.26 942.073 1000.14 941.5 1000.14C940.78 1000.14 940.14 1000.34 939.58 1000.74C939.02 1001.13 938.74 1001.69 938.74 1002.44C938.74 1002.81 938.807 1003.13 938.94 1003.4C939.073 1003.65 939.3 1003.88 939.62 1004.08C939.94 1004.27 940.227 1004.41 940.48 1004.52C940.733 1004.61 941.12 1004.75 941.64 1004.92C942.16 1005.08 942.553 1005.21 942.82 1005.32C943.1 1005.41 943.46 1005.58 943.9 1005.82C944.34 1006.06 944.673 1006.31 944.9 1006.58C945.14 1006.83 945.347 1007.17 945.52 1007.6C945.707 1008.03 945.8 1008.51 945.8 1009.06C945.8 1010.45 945.32 1011.51 944.36 1012.26C943.413 1012.99 942.26 1013.36 940.9 1013.36C939.98 1013.36 939.1 1013.19 938.26 1012.84C937.433 1012.48 936.76 1011.97 936.24 1011.3L937.78 1010C938.113 1010.49 938.56 1010.89 939.12 1011.2C939.693 1011.51 940.3 1011.66 940.94 1011.66C941.687 1011.66 942.347 1011.45 942.92 1011.04C943.493 1010.61 943.78 1010.01 943.78 1009.24C943.78 1008.91 943.713 1008.61 943.58 1008.34C943.447 1008.07 943.3 1007.86 943.14 1007.7C942.98 1007.54 942.72 1007.38 942.36 1007.22C942 1007.05 941.707 1006.92 941.48 1006.84C941.267 1006.76 940.913 1006.65 940.42 1006.5C939.887 1006.33 939.433 1006.16 939.06 1006C938.7 1005.83 938.32 1005.59 937.92 1005.3C937.533 1004.99 937.24 1004.61 937.04 1004.14C936.84 1003.67 936.74 1003.13 936.74 1002.52C936.74 1001.63 936.987 1000.87 937.48 1000.24C937.973 999.6 938.573 999.147 939.28 998.88C940 998.613 940.773 998.48 941.6 998.48C942.413 998.48 943.18 998.627 943.9 998.92C944.633 999.213 945.22 999.607 945.66 1000.1ZM956.507 1004.82L955.147 1005.92C954.947 1005.6 954.64 1005.34 954.227 1005.14C953.827 1004.94 953.407 1004.84 952.967 1004.84C952.02 1004.84 951.267 1005.17 950.707 1005.84C950.147 1006.51 949.867 1007.31 949.867 1008.26C949.867 1009.21 950.147 1010.01 950.707 1010.68C951.28 1011.35 952.04 1011.68 952.987 1011.68C953.96 1011.68 954.72 1011.33 955.267 1010.64L956.527 1011.78C955.673 1012.77 954.493 1013.26 952.987 1013.26C951.507 1013.26 950.287 1012.8 949.327 1011.88C948.367 1010.96 947.887 1009.75 947.887 1008.26C947.887 1006.78 948.36 1005.58 949.307 1004.66C950.267 1003.73 951.48 1003.26 952.947 1003.26C953.64 1003.26 954.313 1003.4 954.967 1003.68C955.62 1003.95 956.133 1004.33 956.507 1004.82ZM958.39 1005.56C958.39 1004.75 958.363 1004.07 958.31 1003.52H960.09C960.143 1004.16 960.17 1004.69 960.17 1005.12H960.23C960.496 1004.56 960.89 1004.11 961.41 1003.78C961.93 1003.43 962.503 1003.26 963.13 1003.26C963.423 1003.26 963.67 1003.29 963.87 1003.34L963.79 1005.08C963.523 1005.01 963.236 1004.98 962.93 1004.98C962.076 1004.98 961.416 1005.27 960.95 1005.86C960.496 1006.45 960.27 1007.17 960.27 1008.02V1013H958.39V1005.56ZM973.424 1004.66C974.397 1005.59 974.884 1006.79 974.884 1008.24C974.884 1009.69 974.391 1010.89 973.404 1011.84C972.431 1012.79 971.217 1013.26 969.764 1013.26C968.311 1013.26 967.097 1012.79 966.124 1011.84C965.151 1010.89 964.664 1009.69 964.664 1008.24C964.664 1006.79 965.144 1005.59 966.104 1004.66C967.077 1003.73 968.297 1003.26 969.764 1003.26C971.231 1003.26 972.451 1003.73 973.424 1004.66ZM972.064 1010.68C972.637 1010 972.924 1009.19 972.924 1008.24C972.924 1007.29 972.637 1006.49 972.064 1005.82C971.504 1005.15 970.737 1004.82 969.764 1004.82C968.791 1004.82 968.017 1005.15 967.444 1005.82C966.884 1006.49 966.604 1007.29 966.604 1008.24C966.604 1009.19 966.884 1010 967.444 1010.68C968.017 1011.35 968.791 1011.68 969.764 1011.68C970.737 1011.68 971.504 1011.35 972.064 1010.68ZM979.411 997.88V1013H977.531V997.88H979.411ZM984.606 997.88V1013H982.726V997.88H984.606Z" fill="white"/>
<path d="M1611.83 371C1611.08 371 1610.36 371.299 1609.83 371.83C1609.3 372.361 1609 373.082 1609 373.833C1609 374.585 1609.3 375.305 1609.83 375.837C1610.36 376.368 1611.08 376.667 1611.83 376.667C1612.58 376.667 1613.31 376.368 1613.84 375.837C1614.37 375.305 1614.67 374.585 1614.67 373.833C1614.67 373.082 1614.37 372.361 1613.84 371.83C1613.31 371.299 1612.58 371 1611.83 371ZM1609.17 379C1609.12 379 1609.08 379.018 1609.05 379.049C1609.02 379.08 1609 379.122 1609 379.167V396.5C1609 396.592 1609.07 396.667 1609.17 396.667H1614.5C1614.54 396.667 1614.59 396.649 1614.62 396.618C1614.65 396.587 1614.67 396.544 1614.67 396.5V379.167C1614.67 379.122 1614.65 379.08 1614.62 379.049C1614.59 379.018 1614.54 379 1614.5 379H1609.17ZM1617.83 379C1617.79 379 1617.75 379.018 1617.72 379.049C1617.68 379.08 1617.67 379.122 1617.67 379.167V396.5C1617.67 396.592 1617.74 396.667 1617.83 396.667H1623.17C1623.21 396.667 1623.25 396.649 1623.28 396.618C1623.32 396.587 1623.33 396.544 1623.33 396.5V387.167C1623.33 386.504 1623.6 385.868 1624.07 385.399C1624.53 384.93 1625.17 384.667 1625.83 384.667C1626.5 384.667 1627.13 384.93 1627.6 385.399C1628.07 385.868 1628.33 386.504 1628.33 387.167V396.5C1628.33 396.592 1628.41 396.667 1628.5 396.667H1633.83C1633.88 396.667 1633.92 396.649 1633.95 396.618C1633.98 396.587 1634 396.544 1634 396.5V385.007C1634 381.771 1631.19 379.24 1627.97 379.532C1626.97 379.623 1625.99 379.87 1625.07 380.263L1623.33 381.009V379.167C1623.33 379.122 1623.32 379.08 1623.28 379.049C1623.25 379.018 1623.21 379 1623.17 379H1617.83Z" fill="white"/>
<g clip-path="url(#clip1_125_2425)">
<path d="M1618.25 430C1619.19 430 1620.04 430.078 1620.81 430.25C1621.58 430.422 1622.24 430.688 1622.79 431.063C1623.34 431.438 1623.77 431.928 1624.07 432.558C1624.37 433.183 1624.53 433.959 1624.53 434.865C1624.53 435.849 1624.3 436.678 1623.85 437.344C1623.4 438.011 1622.73 438.542 1621.84 438.969C1623.05 439.318 1623.95 439.927 1624.54 440.797C1625.14 441.677 1625.43 442.729 1625.43 443.943C1625.43 444.943 1625.26 445.797 1624.88 446.516C1624.52 447.234 1623.99 447.853 1623.33 448.318C1622.69 448.782 1621.93 449.115 1621.11 449.339C1620.28 449.563 1619.42 449.677 1618.56 449.678H1609V430.011H1618.25L1618.25 430ZM1631.59 446.214C1632.17 446.787 1633.02 447.074 1634.12 447.073C1634.9 447.074 1635.58 446.874 1636.15 446.474C1636.72 446.089 1637.06 445.661 1637.19 445.224H1640.64C1640.11 446.927 1639.25 448.156 1638.11 448.891C1636.98 449.636 1635.6 449.995 1634.01 449.995C1632.89 449.995 1631.89 449.823 1630.98 449.464C1630.11 449.124 1629.33 448.605 1628.68 447.943C1628.06 447.292 1627.58 446.505 1627.25 445.584C1626.74 444.202 1626.75 443.652 1626.75 442.558C1626.75 441.485 1626.93 440.506 1627.29 439.584C1627.62 438.699 1628.13 437.888 1628.78 437.199C1629.44 436.517 1630.19 436.006 1631.1 435.605C1631.99 435.204 1632.96 435.027 1634.05 435.027C1635.27 435.027 1636.31 435.246 1637.23 435.725C1638.1 436.169 1638.85 436.807 1639.44 437.59C1640.03 438.371 1640.44 439.272 1640.69 440.288C1640.95 441.288 1641.03 442.34 1640.98 443.46H1630.72C1630.72 444.58 1631.1 445.637 1631.67 446.21L1631.56 446.252L1631.59 446.214ZM1617.93 446.281C1618.35 446.281 1618.76 446.239 1619.14 446.156C1619.5 446.086 1619.84 445.95 1620.16 445.755C1620.44 445.578 1620.68 445.317 1620.85 444.979C1621.03 444.661 1621.1 444.219 1621.1 443.698C1621.1 442.698 1620.81 441.979 1620.25 441.542C1619.68 441.115 1618.93 440.901 1618 440.901H1613.32V446.302H1617.93V446.26L1617.93 446.281ZM1636.08 438.75C1635.6 438.234 1634.82 437.958 1633.86 437.958C1633.24 437.958 1632.73 438.057 1632.31 438.276C1631.93 438.462 1631.59 438.73 1631.32 439.062C1631.08 439.357 1630.91 439.697 1630.8 440.062C1630.71 440.371 1630.65 440.689 1630.62 441.01H1636.97C1636.88 440.01 1636.53 439.276 1636.07 438.755V438.771L1636.08 438.75ZM1617.69 437.927C1618.46 437.927 1619.09 437.75 1619.59 437.38C1620.09 437.021 1620.33 436.416 1620.33 435.594C1620.33 435.136 1620.24 434.761 1620.09 434.469C1619.93 434.19 1619.7 433.955 1619.43 433.787C1619.13 433.614 1618.8 433.497 1618.46 433.443C1618.09 433.373 1617.72 433.34 1617.34 433.344H1613.31V437.927H1617.69ZM1629.82 431.318H1637.78V433.255H1629.82V431.302V431.318Z" fill="white"/>
</g>
<path d="M618.5 239.503H735V159.167H441V279.92H391.5C391.5 279.92 391.5 122.907 391.5 39.4113H-21V77.8328H-162V195.093H-84.5V122.741H46.5V77.8328H341.5V122.741H104V195.093H341.5H532V-4" stroke="#F7CB16" stroke-width="2"/>
<circle cx="610.02" cy="230.654" r="13.9598" stroke="#F7CB16" stroke-width="6"/>
<circle cx="633.248" cy="254.619" r="10.692" fill="#F7CB16"/>
<path d="M2507.5 1071.5H2624V991.167H2330V1111.92H2280.5C2280.5 1111.92 2280.5 954.907 2280.5 871.411H1868V909.833H1727V1027.09H1804.5V954.741H1935.5V909.833H2230.5V954.741H1993V1027.09H2230.5H2421V828" stroke="#F7CB16" stroke-width="2"/>
</g>
<defs>
<filter id="filter0_d_125_2425" x="949.636" y="686" width="22.7285" height="311" filterUnits="userSpaceOnUse" color-interpolation-filters="sRGB">
<feFlood flood-opacity="0" result="BackgroundImageFix"/>
<feColorMatrix in="SourceAlpha" type="matrix" values="0 0 0 0 0 0 0 0 0 0 0 0 0 0 0 0 0 0 127 0" result="hardAlpha"/>
<feOffset dy="4"/>
<feGaussianBlur stdDeviation="2"/>
<feComposite in2="hardAlpha" operator="out"/>
<feColorMatrix type="matrix" values="0 0 0 0 0 0 0 0 0 0 0 0 0 0 0 0 0 0 0.25 0"/>
<feBlend mode="normal" in2="BackgroundImageFix" result="effect1_dropShadow_125_2425"/>
<feBlend mode="normal" in="SourceGraphic" in2="effect1_dropShadow_125_2425" result="shape"/>
</filter>
<clipPath id="clip0_125_2425">
<rect width="1920" height="1080" fill="white"/>
</clipPath>
<clipPath id="clip1_125_2425">
<rect width="54" height="54" fill="white" transform="translate(1609 422)"/>
</clipPath>
</defs>
</svg>
