<svg width="25" height="26" viewBox="0 0 25 26" fill="none" xmlns="http://www.w3.org/2000/svg">
<path d="M2.83333 0C2.08189 0 1.36122 0.298511 0.829864 0.829864C0.298511 1.36122 0 2.08189 0 2.83333C0 3.58478 0.298511 4.30545 0.829864 4.8368C1.36122 5.36816 2.08189 5.66667 2.83333 5.66667C3.58478 5.66667 4.30545 5.36816 4.8368 4.8368C5.36816 4.30545 5.66667 3.58478 5.66667 2.83333C5.66667 2.08189 5.36816 1.36122 4.8368 0.829864C4.30545 0.298511 3.58478 0 2.83333 0ZM0.166667 8C0.122464 8 0.0800715 8.01756 0.0488154 8.04881C0.0175593 8.08007 0 8.12246 0 8.16667V25.5C0 25.592 0.0746667 25.6667 0.166667 25.6667H5.5C5.5442 25.6667 5.5866 25.6491 5.61785 25.6178C5.64911 25.5866 5.66667 25.5442 5.66667 25.5V8.16667C5.66667 8.12246 5.64911 8.08007 5.61785 8.04881C5.5866 8.01756 5.5442 8 5.5 8H0.166667ZM8.83333 8C8.78913 8 8.74674 8.01756 8.71548 8.04881C8.68423 8.08007 8.66667 8.12246 8.66667 8.16667V25.5C8.66667 25.592 8.74133 25.6667 8.83333 25.6667H14.1667C14.2109 25.6667 14.2533 25.6491 14.2845 25.6178C14.3158 25.5866 14.3333 25.5442 14.3333 25.5V16.1667C14.3333 15.5036 14.5967 14.8677 15.0656 14.3989C15.5344 13.9301 16.1703 13.6667 16.8333 13.6667C17.4964 13.6667 18.1323 13.9301 18.6011 14.3989C19.0699 14.8677 19.3333 15.5036 19.3333 16.1667V25.5C19.3333 25.592 19.408 25.6667 19.5 25.6667H24.8333C24.8775 25.6667 24.9199 25.6491 24.9512 25.6178C24.9824 25.5866 25 25.5442 25 25.5V14.0067C25 10.7707 22.1867 8.24 18.9667 8.532C17.9705 8.62339 16.9947 8.86992 16.0747 9.26267L14.3333 10.0093V8.16667C14.3333 8.12246 14.3158 8.08007 14.2845 8.04881C14.2533 8.01756 14.2109 8 14.1667 8H8.83333Z" fill="white"/>
</svg>
