<svg width="393" height="96" viewBox="0 0 393 96" fill="none" xmlns="http://www.w3.org/2000/svg">
<path d="M59.43 9.81721H33.8095L35.0067 8.61999V74.2277H24.4233V8.61999L25.6205 9.81721H0V0H59.43V9.81721Z" fill="white"/>
<path d="M109.906 24.4233C108.182 22.1725 106.074 20.4485 103.584 19.2992C101.046 18.102 98.2207 17.4794 95.06 17.4794C92.474 17.4794 90.0317 17.9104 87.8288 18.7245C85.5781 19.5386 83.5667 20.7359 81.7948 22.2683C80.023 23.8007 78.5384 25.6684 77.2933 27.8713C76.0961 29.9784 75.1862 32.3728 74.5157 35.0067V0H64.3154V74.4192H74.5157V44.4408C74.5157 42.5732 74.6594 40.8492 74.9946 39.2209C75.3299 37.6406 75.8087 36.1561 76.4792 34.8631C77.1017 33.5222 77.868 32.3728 78.8257 31.3672C79.7835 30.3615 80.8371 29.4995 82.0822 28.8291C83.2794 28.1107 84.6203 27.584 86.0569 27.2487C87.5415 26.8656 89.1218 26.722 90.8458 26.722C93.2403 26.722 95.2995 27.0572 97.0714 27.7755C98.8433 28.446 100.328 29.4995 101.525 30.8883C102.722 32.3249 103.632 34.0489 104.207 36.1561C104.255 36.2997 104.303 36.4434 104.303 36.587C104.494 36.1082 104.686 35.6772 104.925 35.2462C106.41 32.3249 108.517 29.8347 111.151 27.7276C111.342 27.584 111.534 27.4403 111.725 27.3445C111.199 26.291 110.576 25.3332 109.906 24.4233ZM108.229 66.2781C106.984 64.5541 105.931 62.6386 105.069 60.4836V74.4192H115.269V73.1262C112.587 71.4022 110.241 69.1036 108.229 66.2781Z" fill="white"/>
<path d="M113.134 45.8774C113.181 43.5309 113.66 41.4238 114.522 39.604C114.858 38.8378 115.241 38.1673 115.72 37.4969C116.39 36.5391 117.204 35.6771 118.114 34.863C119.694 33.57 121.61 32.6122 123.909 31.9897C126.064 31.415 128.123 31.2235 130.038 31.5587C131.954 31.846 133.678 32.5643 135.258 33.7616C136.839 34.9109 138.227 36.4912 139.425 38.4547C139.951 39.3167 140.43 40.2744 140.861 41.2801L116.103 48.1282L113.277 48.8944C113.134 47.8409 113.086 46.8352 113.134 45.8774ZM144.453 53.7791C144.261 55.4552 143.926 56.9876 143.399 58.3764C142.92 59.7652 142.202 61.0103 141.34 62.1117C140.478 63.1653 139.425 64.0752 138.179 64.8414C136.934 65.6076 135.546 66.2302 133.965 66.6612C131.667 67.2837 129.464 67.4753 127.357 67.1879C125.297 66.9006 123.382 66.1823 121.706 65.0329C119.982 63.9315 118.449 62.3991 117.204 60.4835C116.821 59.861 116.438 59.2384 116.103 58.568C115.767 57.9454 115.48 57.3229 115.193 56.6045L116.103 56.3651L151.971 46.4042C151.876 45.7817 151.732 45.1591 151.636 44.5844C151.493 44.0577 151.349 43.483 151.205 42.9562C150.152 39.1251 148.619 35.7729 146.704 32.9953C144.788 30.1699 142.537 27.9191 139.999 26.2909C137.413 24.6627 134.588 23.657 131.475 23.226C128.362 22.795 125.106 23.0824 121.61 24.0401C118.353 24.95 115.48 26.3388 113.038 28.1586C113.038 28.1586 112.75 28.398 112.607 28.4938C110.021 30.5051 108.057 32.8996 106.621 35.6771C106.19 36.5391 105.807 37.4011 105.519 38.311C105.423 38.5983 105.28 38.8857 105.232 39.2209C104.561 41.0407 104.226 42.9562 104.083 44.9675C103.795 48.4155 104.178 52.0072 105.232 55.7904C105.376 56.4609 105.615 57.0834 105.807 57.6581C105.854 57.7539 105.854 57.8496 105.902 57.9454C106.908 60.8666 108.201 63.4526 109.829 65.7513C111.649 68.2894 113.756 70.3486 116.103 71.9289C116.342 72.1205 116.629 72.312 116.869 72.4557C119.551 74.0839 122.52 75.1375 125.776 75.5685C128.985 75.9516 132.385 75.7122 135.977 74.7065C138.754 73.9403 141.292 72.7909 143.495 71.3543C145.698 69.9176 147.518 68.1457 149.002 66.1344C150.487 64.171 151.636 61.8723 152.355 59.3821C153.073 56.8919 153.408 54.2101 153.264 51.3368L144.453 53.7791Z" fill="#F7CB16"/>
<path d="M162.726 74.4197L189.543 2.53857H205.395L231.829 74.4676H220.623L195.625 5.89079H199.025L173.692 74.4676H162.726V74.4197Z" fill="white"/>
<path d="M273.838 19.0117L250.899 77.9628C249.75 80.9319 248.409 83.47 246.877 85.625C245.344 87.78 243.572 89.5519 241.609 90.9407C239.598 92.3295 237.395 93.383 234.952 94.0535C232.51 94.7239 229.78 95.0591 226.763 95.0591C225.949 95.0591 225.135 95.0591 224.369 94.9634C223.603 94.9155 222.836 94.8197 222.118 94.7239V85.8645C223.028 85.9603 223.842 86.056 224.608 86.1039C225.375 86.1518 226.093 86.1997 226.811 86.1997C228.487 86.1997 230.02 86.056 231.361 85.7208C232.702 85.3856 233.947 84.9067 235 84.2363C236.054 83.5658 237.012 82.7038 237.778 81.6503C238.544 80.5967 239.214 79.3995 239.741 77.9628L241.657 72.7908L241.226 78.2502L218.431 19.0596H229.014L248.409 71.1626H243.955L263.542 19.0596H273.838V19.0117Z" fill="white"/>
<path d="M273.799 29.6911C274.948 27.1051 276.672 24.9501 278.827 23.1303C281.03 21.3106 283.664 19.9218 286.776 18.964C289.889 18.0062 293.385 17.5273 297.264 17.5273C301.382 17.5273 305.07 18.0541 308.278 19.1556C311.535 20.257 314.265 21.8373 316.563 23.8966C318.814 25.9558 320.538 28.4939 321.783 31.463C322.98 34.4321 323.603 37.8322 323.603 41.5675V74.4671H313.403V59.2864H313.498C313.067 61.0104 312.445 62.6386 311.726 64.1232C310.96 65.6077 310.098 66.9965 309.045 68.2416C307.991 69.4867 306.842 70.5881 305.501 71.5459C304.208 72.5037 302.771 73.3178 301.191 73.9882C299.611 74.6587 297.982 75.1376 296.21 75.4728C294.439 75.808 292.571 75.9996 290.608 75.9996C287.591 75.9996 284.813 75.6165 282.323 74.8024C279.833 73.9883 277.725 72.8868 275.954 71.4023C274.182 69.9177 272.841 68.1937 271.835 66.1345C270.877 64.0753 270.398 61.7766 270.398 59.2864C270.398 56.7962 270.877 54.4975 271.883 52.4383C272.889 50.427 274.325 48.703 276.193 47.2663C278.061 45.8296 280.311 44.7761 282.993 44.0099C285.675 43.2436 288.644 42.8605 291.996 42.8605H313.786V51.3847H291.9C290.033 51.3847 288.357 51.5284 286.968 51.8636C285.531 52.1988 284.334 52.6777 283.376 53.3003C282.419 53.9228 281.7 54.7369 281.173 55.6468C280.695 56.6046 280.455 57.6582 280.455 58.9033C280.455 60.1963 280.742 61.3935 281.317 62.3992C281.892 63.4048 282.706 64.2668 283.807 64.9852C284.909 65.6556 286.25 66.1824 287.83 66.5655C289.41 66.9486 291.278 67.0923 293.337 67.0923C295.301 67.0923 297.168 66.9486 298.892 66.6134C300.664 66.2781 302.244 65.8472 303.777 65.2725C305.309 64.6978 306.602 63.9795 307.8 63.1175C308.997 62.2555 310.002 61.3456 310.864 60.292C311.726 59.2385 312.349 58.0892 312.78 56.8441C313.211 55.5989 313.45 54.306 313.45 52.9172V41.5675C313.45 39.2689 313.067 37.2575 312.301 35.3899C311.535 33.5701 310.433 31.9898 309.045 30.6968C307.656 29.4038 305.932 28.3981 303.921 27.7277C301.909 27.0572 299.658 26.6741 297.12 26.6741C294.582 26.6741 292.332 26.9614 290.464 27.4882C288.596 28.0629 287.064 28.8291 285.819 29.8348C284.621 30.8404 283.712 32.0377 283.089 33.4743C282.514 34.911 282.179 36.4913 282.179 38.2153H271.979C271.979 35.0546 272.553 32.1334 273.751 29.5953L273.799 29.6911Z" fill="white"/>
<path d="M371.616 19.0117H327.176V27.5838H360.027L326.17 65.2723V74.4191H364.055C363.145 74.1317 362.379 73.7007 361.661 73.2218C360.703 72.4556 359.937 71.4978 359.41 70.3964C358.931 69.3428 358.367 67.8888 358.367 66.5V65.847H337.807L371.616 28.1585V19.0117Z" fill="white"/>
<path d="M382.988 71.9462C382.344 73.3273 381.585 74.4059 380.584 75.1843C380.035 75.6758 379.43 76.0161 378.719 76.3075C378.237 76.5188 377.727 76.6545 377.217 76.7902C375.915 77.1172 374.523 77.0906 372.94 76.7884C371.409 76.5105 369.711 75.9058 367.876 75.0498C366.04 74.1938 364.381 73.2333 363.156 72.1637C361.878 71.0697 361.01 69.9179 360.371 68.686C359.809 67.4273 359.528 66.1131 359.581 64.7677C359.633 63.4223 360.044 61.9946 360.735 60.5112L365.193 62.5901C364.812 63.4085 364.659 64.1468 364.659 64.8317C364.687 65.5923 364.868 66.2994 365.255 66.9776C365.617 67.707 366.208 68.3563 366.952 68.9522C367.748 69.5726 368.673 70.1907 369.879 70.7532C370.928 71.2424 371.92 71.5803 372.855 71.767C373.765 72.0049 374.619 72.0915 375.363 72.0025C376.107 71.9135 376.741 71.6488 377.27 71.3352C377.823 70.9704 378.243 70.4812 378.553 69.8162C378.792 69.3047 378.878 68.8466 378.859 68.3396C378.849 68.0861 378.787 67.8081 378.725 67.5301C378.721 67.4034 378.663 67.2522 378.63 67.0498C378.458 66.5962 378.187 66.2204 377.886 65.769C377.538 65.4199 377.162 64.9951 376.761 64.6216C376.284 64.2747 375.855 63.8255 375.379 63.4787C374.878 63.183 374.401 62.8361 373.896 62.4136L372.384 61.2729C371.803 60.8771 371.169 60.4569 370.582 59.9344C369.896 59.4897 369.333 58.916 368.694 58.369C368.108 57.8464 367.569 57.2216 367.107 56.5701C366.668 55.8674 366.282 55.1892 366.072 54.4064C365.786 53.6503 365.705 52.8653 365.748 51.9513C365.844 51.0618 366.068 50.1701 366.521 49.1982C367.118 47.9195 367.905 46.9165 368.854 46.1136C369.803 45.3107 370.943 44.7836 372.144 44.5344C373.446 44.2074 374.81 44.1583 376.312 44.3606C377.79 44.6139 379.354 45.0941 380.98 45.8523C382.711 46.6594 384.136 47.5732 385.257 48.5939C386.353 49.6656 387.245 50.7663 387.755 52.0005C388.317 53.2591 388.57 54.4978 388.517 55.8432C388.488 57.1374 388.102 58.514 387.458 59.895L383 57.8162C383.31 57.1512 383.486 56.3618 383.486 55.6768C383.487 54.9919 383.282 54.3359 382.948 53.6821C382.638 52.9772 382.152 52.3768 381.461 51.8054C380.769 51.2339 379.949 50.6647 378.953 50.2C378.061 49.7842 377.174 49.4952 376.344 49.3574C375.539 49.1685 374.714 49.1574 374.046 49.2198C373.355 49.3332 372.744 49.5468 372.191 49.9115C371.662 50.2251 371.318 50.6877 371.056 51.2504C370.865 51.6596 370.727 52.0932 370.765 52.4223C370.808 52.8782 370.898 53.2318 371.041 53.6098C371.213 54.0635 371.456 54.3637 371.804 54.7128C372.099 55.0374 372.424 55.4377 372.796 55.7356C373.22 56.058 373.644 56.3804 374.069 56.7029C374.493 57.0253 374.941 57.2965 375.342 57.6701L376.877 58.7596C377.511 59.1799 378.197 59.6246 378.889 60.196C379.552 60.6919 380.243 61.2633 380.858 61.8615C381.497 62.4085 382.088 63.0578 382.579 63.7849C383.07 64.512 383.432 65.2414 383.694 66.0486C383.933 66.907 384.018 67.8187 383.923 68.7083C383.856 69.6734 383.56 70.7186 383.059 71.7928L382.988 71.9462Z" fill="#F7CB16"/>
</svg>
