<svg width="172" height="23" viewBox="0 0 172 23" fill="none" xmlns="http://www.w3.org/2000/svg">
<path d="M1 11C0.447715 11 0 11.4477 0 12C0 12.5523 0.447715 13 1 13V11ZM164.707 12.7071C165.098 12.3166 165.098 11.6834 164.707 11.2929L158.343 4.92893C157.953 4.53841 157.319 4.53841 156.929 4.92893C156.538 5.31946 156.538 5.95262 156.929 6.34315L162.586 12L156.929 17.6569C156.538 18.0474 156.538 18.6805 156.929 19.0711C157.319 19.4616 157.953 19.4616 158.343 19.0711L164.707 12.7071ZM1 13H164V11H1V13Z" fill="white"/>
</svg>
