<svg width="146" height="60" viewBox="0 0 146 60" fill="none" xmlns="http://www.w3.org/2000/svg">
<path d="M0.464 0.239998H8.88V39.376L8.112 38.576H31.056V46H0.464V0.239998ZM33.036 28.352C33.036 26.4853 33.228 24.7307 33.612 23.088C33.996 21.4453 34.5453 19.936 35.26 18.56C35.9853 17.1733 36.8653 15.936 37.9 14.848C38.9347 13.76 40.1027 12.8427 41.404 12.096C42.7053 11.3387 44.1293 10.7627 45.676 10.368C47.2227 9.96267 48.8653 9.76 50.604 9.76C52.3427 9.76 53.9853 9.96267 55.532 10.368C57.0787 10.7627 58.5027 11.3387 59.804 12.096C61.1053 12.8427 62.2733 13.76 63.308 14.848C64.3427 15.936 65.2173 17.1733 65.932 18.56C66.6573 19.936 67.212 21.4453 67.596 23.088C67.98 24.7307 68.172 26.4853 68.172 28.352C68.172 30.2187 67.98 31.9787 67.596 33.632C67.212 35.2747 66.6573 36.784 65.932 38.16C65.2173 39.536 64.3373 40.768 63.292 41.856C62.2573 42.944 61.0893 43.8667 59.788 44.624C58.4973 45.3813 57.0787 45.9573 55.532 46.352C53.996 46.7573 52.3533 46.96 50.604 46.96C48.8653 46.96 47.2227 46.7573 45.676 46.352C44.1293 45.9573 42.7053 45.3813 41.404 44.624C40.1133 43.8667 38.9453 42.944 37.9 41.856C36.8653 40.768 35.9853 39.536 35.26 38.16C34.5453 36.784 33.996 35.2747 33.612 33.632C33.228 31.9787 33.036 30.2187 33.036 28.352ZM41.1 28.352C41.1 30.1547 41.3133 31.7707 41.74 33.2C42.1773 34.6187 42.8067 35.824 43.628 36.816C44.4493 37.7973 45.4467 38.5493 46.62 39.072C47.804 39.5947 49.1373 39.856 50.62 39.856C52.1027 39.856 53.4307 39.6 54.604 39.088C55.7773 38.5653 56.7693 37.808 57.58 36.816C58.4013 35.824 59.0253 34.6187 59.452 33.2C59.8893 31.7707 60.108 30.1547 60.108 28.352C60.108 26.5493 59.8893 24.9387 59.452 23.52C59.0253 22.0907 58.4013 20.8853 57.58 19.904C56.7693 18.912 55.7773 18.16 54.604 17.648C53.4307 17.1253 52.1027 16.864 50.62 16.864C49.1373 16.864 47.804 17.1253 46.62 17.648C45.4467 18.16 44.4493 18.912 43.628 19.904C42.8067 20.8853 42.1773 22.0907 41.74 23.52C41.3133 24.9387 41.1 26.5493 41.1 28.352ZM98.5515 10.72H106.583V40.432C106.583 43.248 106.152 45.8027 105.288 48.096C104.434 50.4 103.224 52.3627 101.656 53.984C100.088 55.616 98.1942 56.8747 95.9755 57.76C93.7675 58.6453 91.3035 59.088 88.5835 59.088C86.9408 59.088 85.3782 58.928 83.8955 58.608C82.4235 58.288 81.0582 57.8293 79.7995 57.232C78.5408 56.6347 77.3995 55.9147 76.3755 55.072C75.3622 54.2293 74.4982 53.28 73.7835 52.224C73.0688 51.1787 72.5195 50.0427 72.1355 48.816C71.7515 47.5893 71.5595 46.288 71.5595 44.912H79.5755C79.5755 46.0107 79.7995 47.024 80.2475 47.952C80.7062 48.8907 81.3355 49.7013 82.1355 50.384C82.9355 51.0667 83.8795 51.6 84.9675 51.984C86.0662 52.368 87.2555 52.56 88.5355 52.56C90.0502 52.56 91.4262 52.2773 92.6635 51.712C93.9008 51.1467 94.9515 50.336 95.8155 49.28C96.6902 48.2347 97.3622 46.9653 97.8315 45.472C98.3115 43.9787 98.5515 42.3093 98.5515 40.464V33.552L98.5995 33.52C98.1835 35.2907 97.5915 36.88 96.8235 38.288C96.0555 39.6853 95.1275 40.8747 94.0395 41.856C92.9622 42.8373 91.7408 43.5893 90.3755 44.112C89.0208 44.624 87.5328 44.88 85.9115 44.88C84.5142 44.88 83.1862 44.6827 81.9275 44.288C80.6688 43.8933 79.5062 43.3333 78.4395 42.608C77.3728 41.872 76.4075 40.9813 75.5435 39.936C74.6902 38.8907 73.9595 37.7173 73.3515 36.416C72.7542 35.104 72.2902 33.68 71.9595 32.144C71.6395 30.5973 71.4795 28.9653 71.4795 27.248C71.4795 25.5307 71.6395 23.904 71.9595 22.368C72.2902 20.832 72.7542 19.4187 73.3515 18.128C73.9595 16.8373 74.6902 15.6747 75.5435 14.64C76.4075 13.6053 77.3728 12.7307 78.4395 12.016C79.5062 11.2907 80.6688 10.736 81.9275 10.352C83.1862 9.95733 84.5195 9.76 85.9275 9.76C87.5382 9.76 89.0208 10.016 90.3755 10.528C91.7408 11.04 92.9622 11.7813 94.0395 12.752C95.1275 13.712 96.0555 14.8853 96.8235 16.272C97.5915 17.6587 98.1835 19.232 98.5995 20.992L98.5515 20.96V10.72ZM98.5515 27.248C98.5515 26.128 98.4502 25.0933 98.2475 24.144C98.0555 23.184 97.7728 22.3147 97.3995 21.536C97.0262 20.7573 96.5622 20.0693 96.0075 19.472C95.4528 18.8747 94.8128 18.3733 94.0875 17.968C93.3622 17.5627 92.5568 17.2587 91.6715 17.056C90.7968 16.8427 89.8475 16.736 88.8235 16.736C87.3195 16.736 85.9915 16.96 84.8395 17.408C83.6875 17.8453 82.7168 18.5067 81.9275 19.392C81.1382 20.2773 80.5408 21.376 80.1355 22.688C79.7408 23.9893 79.5435 25.5093 79.5435 27.248C79.5435 28.9867 79.7462 30.5173 80.1515 31.84C80.5568 33.1627 81.1488 34.2773 81.9275 35.184C82.7168 36.08 83.6875 36.7573 84.8395 37.216C85.9915 37.6747 87.3195 37.904 88.8235 37.904C89.8475 37.904 90.7968 37.7973 91.6715 37.584C92.5568 37.36 93.3568 37.0453 94.0715 36.64C94.7968 36.224 95.4368 35.712 95.9915 35.104C96.5568 34.4853 97.0262 33.7813 97.3995 32.992C97.7728 32.2027 98.0555 31.328 98.2475 30.368C98.4502 29.408 98.5515 28.368 98.5515 27.248ZM110.411 28.352C110.411 26.4853 110.603 24.7307 110.987 23.088C111.371 21.4453 111.92 19.936 112.635 18.56C113.36 17.1733 114.24 15.936 115.275 14.848C116.31 13.76 117.478 12.8427 118.779 12.096C120.08 11.3387 121.504 10.7627 123.051 10.368C124.598 9.96267 126.24 9.76 127.979 9.76C129.718 9.76 131.36 9.96267 132.907 10.368C134.454 10.7627 135.878 11.3387 137.179 12.096C138.48 12.8427 139.648 13.76 140.683 14.848C141.718 15.936 142.592 17.1733 143.307 18.56C144.032 19.936 144.587 21.4453 144.971 23.088C145.355 24.7307 145.547 26.4853 145.547 28.352C145.547 30.2187 145.355 31.9787 144.971 33.632C144.587 35.2747 144.032 36.784 143.307 38.16C142.592 39.536 141.712 40.768 140.667 41.856C139.632 42.944 138.464 43.8667 137.163 44.624C135.872 45.3813 134.454 45.9573 132.907 46.352C131.371 46.7573 129.728 46.96 127.979 46.96C126.24 46.96 124.598 46.7573 123.051 46.352C121.504 45.9573 120.08 45.3813 118.779 44.624C117.488 43.8667 116.32 42.944 115.275 41.856C114.24 40.768 113.36 39.536 112.635 38.16C111.92 36.784 111.371 35.2747 110.987 33.632C110.603 31.9787 110.411 30.2187 110.411 28.352ZM118.475 28.352C118.475 30.1547 118.688 31.7707 119.115 33.2C119.552 34.6187 120.182 35.824 121.003 36.816C121.824 37.7973 122.822 38.5493 123.995 39.072C125.179 39.5947 126.512 39.856 127.995 39.856C129.478 39.856 130.806 39.6 131.979 39.088C133.152 38.5653 134.144 37.808 134.955 36.816C135.776 35.824 136.4 34.6187 136.827 33.2C137.264 31.7707 137.483 30.1547 137.483 28.352C137.483 26.5493 137.264 24.9387 136.827 23.52C136.4 22.0907 135.776 20.8853 134.955 19.904C134.144 18.912 133.152 18.16 131.979 17.648C130.806 17.1253 129.478 16.864 127.995 16.864C126.512 16.864 125.179 17.1253 123.995 17.648C122.822 18.16 121.824 18.912 121.003 19.904C120.182 20.8853 119.552 22.0907 119.115 23.52C118.688 24.9387 118.475 26.5493 118.475 28.352Z" fill="white"/>
</svg>
